<?xml version="1.0" standalone="no"?>
<!DOCTYPE svg PUBLIC "-//W3C//DTD SVG 20010904//EN"
 "http://www.w3.org/TR/2001/REC-SVG-20010904/DTD/svg10.dtd">
<svg version="1.0" xmlns="http://www.w3.org/2000/svg"
 width="1348.000000pt" height="1348.000000pt" viewBox="0 0 1348.000000 1348.000000"
 preserveAspectRatio="xMidYMid meet">

<g transform="translate(0.000000,1348.000000) scale(0.100000,-0.100000)"
fill="#000000" stroke="none">
<path d="M9065 12771 c3 -5 21 -15 39 -21 27 -9 42 -8 70 4 20 8 36 17 36 20
0 4 -34 6 -76 6 -43 0 -73 -4 -69 -9z"/>
<path d="M9580 12770 c0 -6 27 -10 60 -10 33 0 60 4 60 10 0 6 -27 10 -60 10
-33 0 -60 -4 -60 -10z"/>
<path d="M8314 12716 c-43 -19 -64 -53 -64 -101 0 -152 203 -183 251 -38 15
47 -11 117 -51 138 -36 18 -95 19 -136 1z"/>
<path d="M8818 12714 c-54 -29 -72 -97 -42 -160 20 -42 59 -64 115 -64 33 0
47 6 75 34 30 30 34 40 34 86 0 46 -4 56 -34 86 -28 28 -41 34 -77 34 -24 -1
-56 -7 -71 -16z"/>
<path d="M9343 12715 c-37 -16 -73 -68 -73 -105 0 -38 37 -90 76 -106 77 -32
154 21 154 108 0 52 -21 85 -66 104 -41 17 -50 17 -91 -1z"/>
<path d="M9839 12705 c-52 -28 -71 -110 -36 -155 46 -60 113 -66 163 -16 28
28 34 42 34 76 0 34 -6 48 -34 76 -38 38 -81 44 -127 19z"/>
<path d="M10329 12681 c-23 -23 -29 -38 -29 -71 0 -33 6 -48 29 -71 23 -23 38
-29 71 -29 33 0 48 6 71 29 23 23 29 38 29 71 0 33 -6 48 -29 71 -23 23 -38
29 -71 29 -33 0 -48 -6 -71 -29z"/>
<path d="M10830 12660 c-28 -28 -25 -72 6 -109 21 -26 33 -31 69 -31 36 0 48
5 69 31 25 30 33 73 18 95 -6 9 -105 34 -134 34 -4 0 -17 -9 -28 -20z"/>
<path d="M7823 12652 l-83 -16 0 -38 c0 -77 88 -138 167 -116 71 19 123 113
93 167 -13 25 -55 26 -177 3z"/>
<path d="M7373 12561 c-61 -14 -115 -29 -118 -32 -11 -12 55 -51 93 -56 51 -7
107 18 132 59 20 34 26 59 13 57 -5 -1 -58 -13 -120 -28z"/>
<path d="M11336 12578 c26 -47 70 -61 115 -38 31 17 23 25 -39 38 -74 15 -85
15 -76 0z"/>
<path d="M7050 12482 c-53 -26 -83 -77 -77 -133 12 -130 161 -181 246 -84 41
47 48 91 23 149 -35 79 -115 107 -192 68z"/>
<path d="M7588 12492 c-40 -5 -95 -60 -103 -105 -10 -51 0 -82 38 -123 51 -56
126 -59 186 -8 44 37 58 94 36 151 -24 62 -83 94 -157 85z"/>
<path d="M8063 12474 c-118 -60 -77 -244 53 -244 98 0 158 73 134 161 -22 79
-115 120 -187 83z"/>
<path d="M8555 12458 c-61 -48 -68 -134 -14 -188 96 -95 257 9 206 133 -22 51
-61 77 -117 77 -33 0 -55 -6 -75 -22z"/>
<path d="M9085 12464 c-47 -24 -65 -53 -65 -107 0 -42 5 -54 34 -83 29 -29 41
-34 79 -34 129 0 169 177 50 226 -42 18 -61 17 -98 -2z"/>
<path d="M9594 12460 c-77 -31 -85 -162 -12 -197 41 -20 56 -22 92 -12 49 14
76 51 76 106 0 38 -5 50 -34 79 -35 35 -75 43 -122 24z"/>
<path d="M10089 12445 c-56 -30 -62 -119 -13 -166 19 -18 37 -24 71 -24 38 0
49 5 74 33 83 93 -22 217 -132 157z"/>
<path d="M10613 12445 c-36 -15 -54 -43 -55 -86 -3 -89 100 -133 163 -70 76
77 -8 199 -108 156z"/>
<path d="M11124 12440 c-86 -35 -61 -170 31 -170 42 0 95 44 95 80 0 33 -26
75 -55 88 -30 14 -42 14 -71 2z"/>
<path d="M11608 12410 c-25 -26 -29 -36 -24 -63 8 -41 39 -67 82 -67 47 0 74
29 74 79 0 31 -6 44 -26 60 -37 29 -70 26 -106 -9z"/>
<path d="M6618 12360 c-166 -53 -151 -44 -133 -80 48 -92 197 -92 247 1 18 33
25 120 11 118 -5 0 -60 -18 -125 -39z"/>
<path d="M12104 12373 c-14 -56 37 -97 95 -77 27 10 38 39 23 62 -5 7 -32 19
-60 27 -52 13 -52 13 -58 -12z"/>
<path d="M6305 12245 c-49 -17 -80 -52 -96 -106 -24 -78 38 -168 127 -185 46
-9 122 30 148 75 69 120 -49 262 -179 216z"/>
<path d="M6793 12234 c-99 -49 -101 -203 -3 -255 98 -53 213 15 213 126 0 108
-112 177 -210 129z"/>
<path d="M7269 12201 c-36 -36 -39 -43 -39 -96 0 -53 3 -60 39 -96 35 -35 44
-39 91 -39 88 0 143 52 143 135 0 83 -55 135 -143 135 -47 0 -56 -4 -91 -39z"/>
<path d="M7803 12220 c-86 -52 -82 -189 6 -235 111 -57 241 65 184 175 -38 73
-124 100 -190 60z"/>
<path d="M8309 12213 c-79 -49 -77 -175 3 -219 41 -23 113 -17 147 12 91 76
38 224 -80 224 -24 0 -56 -8 -70 -17z"/>
<path d="M8833 12215 c-39 -17 -73 -68 -73 -110 0 -71 76 -134 146 -120 18 3
47 19 64 36 26 26 30 38 30 83 0 43 -5 58 -25 80 -42 46 -87 55 -142 31z"/>
<path d="M9329 12205 c-27 -14 -59 -69 -59 -99 0 -35 30 -85 59 -100 51 -27
98 -21 137 18 29 29 34 41 34 81 0 40 -5 52 -34 81 -27 27 -42 34 -72 34 -22
-1 -51 -7 -65 -15z"/>
<path d="M9827 12190 c-14 -11 -31 -36 -37 -55 -25 -76 54 -156 132 -134 80
22 107 122 49 180 -37 36 -104 41 -144 9z"/>
<path d="M10356 12195 c-42 -22 -55 -44 -55 -90 0 -43 10 -61 49 -88 93 -64
199 68 123 153 -34 37 -78 46 -117 25z"/>
<path d="M10859 12185 c-14 -8 -32 -28 -39 -44 -39 -95 79 -174 151 -102 47
48 38 116 -21 146 -36 18 -57 18 -91 0z"/>
<path d="M11355 12167 c-58 -49 -20 -147 56 -147 39 0 89 48 89 85 0 37 -50
85 -89 85 -17 0 -41 -10 -56 -23z"/>
<path d="M11865 12155 c-30 -30 -32 -64 -4 -99 27 -34 77 -36 107 -3 67 72
-34 172 -103 102z"/>
<path d="M12382 12154 c-18 -12 -22 -24 -20 -52 6 -69 92 -85 118 -21 11 27
11 33 -7 57 -24 32 -60 39 -91 16z"/>
<path d="M5870 12091 c-63 -26 -123 -50 -133 -54 -24 -9 -7 -41 36 -67 68 -42
165 -17 207 52 19 32 28 118 13 118 -5 -1 -60 -22 -123 -49z"/>
<path d="M12880 12105 c0 -29 39 -59 64 -49 9 3 21 14 26 24 8 15 2 20 -33 34
-55 21 -57 21 -57 -9z"/>
<path d="M6062 12000 c-93 -22 -143 -145 -92 -228 78 -128 281 -75 283 75 2
104 -89 178 -191 153z"/>
<path d="M6541 11982 c-48 -24 -73 -62 -78 -119 -8 -91 55 -157 148 -156 84 1
139 59 139 148 0 58 -22 97 -70 124 -46 26 -94 27 -139 3z"/>
<path d="M7067 11986 c-48 -18 -62 -29 -81 -70 -22 -46 -20 -94 4 -134 76
-125 262 -77 264 69 2 98 -95 168 -187 135z"/>
<path d="M5540 11949 c-46 -22 -88 -45 -92 -52 -4 -7 -8 -30 -8 -53 0 -55 33
-103 92 -132 64 -32 116 -24 171 28 37 34 41 42 45 98 4 50 0 67 -18 97 -42
68 -72 70 -190 14z"/>
<path d="M7552 11970 c-39 -24 -72 -75 -72 -113 0 -149 202 -196 262 -61 54
123 -77 243 -190 174z"/>
<path d="M8052 11960 c-68 -42 -78 -142 -21 -199 72 -73 191 -41 219 57 32
116 -94 205 -198 142z"/>
<path d="M8573 11964 c-82 -40 -93 -149 -22 -209 24 -19 42 -25 79 -25 134 0
175 177 55 234 -41 20 -71 20 -112 0z"/>
<path d="M9054 11936 c-29 -29 -34 -41 -34 -81 0 -58 27 -99 75 -115 131 -43
219 123 110 208 -19 15 -42 22 -72 22 -38 0 -50 -5 -79 -34z"/>
<path d="M9574 11942 c-30 -24 -44 -55 -44 -97 0 -52 53 -105 105 -105 73 0
115 44 115 121 0 61 -42 99 -107 99 -30 0 -56 -7 -69 -18z"/>
<path d="M10103 11946 c-52 -23 -77 -90 -52 -139 19 -38 51 -57 97 -57 35 0
49 6 73 29 80 81 -14 213 -118 167z"/>
<path d="M10590 11923 c-82 -74 3 -206 103 -158 90 42 70 169 -29 182 -35 4
-46 1 -74 -24z"/>
<path d="M11096 11914 c-34 -35 -35 -83 -2 -121 31 -36 95 -39 128 -5 34 33
31 97 -5 128 -38 33 -86 32 -121 -2z"/>
<path d="M11622 11923 c-15 -6 -42 -56 -42 -78 0 -25 55 -75 83 -75 13 0 36 9
51 21 33 26 37 88 6 119 -19 19 -67 26 -98 13z"/>
<path d="M12120 11900 c-29 -29 -26 -74 6 -99 15 -12 34 -21 44 -21 10 0 29 9
44 21 50 40 21 119 -44 119 -17 0 -39 -9 -50 -20z"/>
<path d="M12635 11894 c-24 -25 -16 -75 16 -93 24 -13 29 -13 53 2 47 31 27
107 -29 107 -13 0 -31 -7 -40 -16z"/>
<path d="M13156 11874 c-20 -20 -20 -27 3 -55 19 -23 19 -24 40 -5 24 21 27
46 9 64 -16 16 -33 15 -52 -4z"/>
<path d="M5126 11750 c-83 -45 -88 -49 -63 -55 61 -16 156 32 170 85 7 29 -7
25 -107 -30z"/>
<path d="M5290 11753 c-100 -38 -138 -166 -74 -250 67 -88 200 -84 261 8 22
33 25 47 21 97 -5 67 -25 101 -79 131 -35 20 -96 26 -129 14z"/>
<path d="M5766 11731 c-95 -64 -93 -209 4 -265 46 -27 116 -26 162 2 52 32 72
76 66 146 -4 50 -10 62 -41 94 -33 32 -42 36 -99 40 -50 2 -69 -1 -92 -17z"/>
<path d="M6284 11731 c-77 -47 -101 -123 -62 -198 31 -61 76 -86 146 -80 43 3
59 10 88 37 80 79 60 196 -43 249 -33 17 -94 13 -129 -8z"/>
<path d="M6785 11721 c-45 -27 -67 -67 -68 -123 -1 -82 59 -142 143 -142 149
0 201 201 70 269 -40 21 -109 19 -145 -4z"/>
<path d="M7301 11723 c-94 -46 -95 -199 -2 -248 63 -32 148 -9 187 50 25 38
22 116 -6 155 -40 57 -115 74 -179 43z"/>
<path d="M7779 11691 c-34 -34 -39 -44 -39 -86 0 -61 24 -100 77 -126 55 -26
103 -18 147 26 90 89 30 225 -98 225 -43 0 -53 -4 -87 -39z"/>
<path d="M8323 11716 c-61 -28 -91 -115 -60 -176 17 -34 74 -70 109 -70 85 0
152 83 129 159 -23 79 -106 119 -178 87z"/>
<path d="M8818 11703 c-16 -10 -35 -32 -43 -49 -42 -90 14 -174 116 -174 33 0
47 6 75 34 30 30 34 40 34 85 0 72 -36 112 -106 118 -35 3 -57 -1 -76 -14z"/>
<path d="M9350 11707 c-20 -7 -44 -27 -58 -47 -59 -88 26 -202 128 -171 54 16
80 52 80 112 0 40 -5 52 -31 78 -17 17 -37 31 -44 31 -7 0 -19 2 -27 4 -7 3
-29 0 -48 -7z"/>
<path d="M9840 11694 c-54 -39 -69 -87 -44 -141 28 -58 103 -81 154 -46 39 27
49 45 50 90 0 84 -96 142 -160 97z"/>
<path d="M10329 11671 c-23 -23 -29 -38 -29 -71 0 -33 6 -48 29 -71 23 -23 38
-29 71 -29 33 0 48 6 71 29 23 23 29 38 29 71 0 33 -6 48 -29 71 -23 23 -38
29 -71 29 -33 0 -48 -6 -71 -29z"/>
<path d="M10836 11659 c-33 -39 -33 -79 -1 -117 32 -38 67 -47 109 -27 59 28
73 93 30 144 -21 26 -33 31 -69 31 -36 0 -48 -5 -69 -31z"/>
<path d="M11395 11682 c-86 -18 -87 -146 -1 -168 34 -8 81 19 96 56 25 59 -31
125 -95 112z"/>
<path d="M11891 11669 c-51 -20 -68 -82 -31 -119 61 -61 147 -10 126 76 -5 19
-53 57 -68 53 -2 0 -14 -5 -27 -10z"/>
<path d="M4837 11595 c-70 -40 -131 -75 -134 -79 -19 -19 87 -86 137 -86 70 0
146 65 157 134 7 45 -5 106 -20 105 -7 -1 -70 -34 -140 -74z"/>
<path d="M12377 11642 c-47 -51 9 -130 70 -100 63 30 48 118 -21 118 -19 0
-40 -8 -49 -18z"/>
<path d="M12892 11638 c-7 -7 -12 -24 -12 -38 0 -53 42 -65 87 -25 l28 25 -28
25 c-31 27 -56 32 -75 13z"/>
<path d="M13411 11612 c-7 -13 -6 -23 1 -30 16 -16 28 -15 50 4 17 16 17 18 0
30 -24 19 -40 17 -51 -4z"/>
<path d="M5030 11499 c-33 -13 -68 -47 -86 -81 -22 -42 -18 -119 9 -159 24
-37 97 -79 137 -79 40 0 113 42 137 79 46 69 24 170 -49 224 -31 23 -111 32
-148 16z"/>
<path d="M5512 11480 c-52 -32 -74 -75 -70 -141 6 -94 66 -149 160 -149 86 0
148 65 148 155 0 93 -62 155 -155 155 -32 0 -62 -7 -83 -20z"/>
<path d="M6032 11484 c-54 -28 -77 -70 -77 -139 0 -72 20 -105 81 -135 52 -26
79 -25 134 3 103 52 112 190 18 260 -36 27 -114 32 -156 11z"/>
<path d="M6528 11473 c-14 -9 -36 -33 -47 -54 -73 -129 61 -266 196 -202 47
22 73 66 73 126 0 93 -54 147 -145 147 -29 0 -61 -8 -77 -17z"/>
<path d="M7042 11471 c-114 -72 -85 -241 46 -267 68 -14 154 48 167 119 9 44
-19 112 -57 139 -44 30 -114 35 -156 9z"/>
<path d="M4530 11416 c-119 -72 -131 -93 -88 -155 40 -59 72 -76 143 -76 71 0
103 17 143 75 52 76 8 220 -68 220 -14 0 -72 -28 -130 -64z"/>
<path d="M7544 11461 c-35 -21 -64 -75 -64 -118 0 -42 32 -94 71 -115 86 -46
183 2 204 100 9 42 -24 111 -64 135 -38 23 -108 22 -147 -2z"/>
<path d="M8074 11466 c-69 -31 -99 -109 -68 -172 27 -53 62 -76 118 -76 79 0
129 50 129 127 0 95 -95 159 -179 121z"/>
<path d="M8562 11450 c-105 -64 -56 -230 68 -230 89 0 150 92 116 174 -18 43
-68 76 -116 76 -19 0 -50 -9 -68 -20z"/>
<path d="M9110 11464 c-64 -22 -90 -57 -90 -125 0 -33 6 -47 34 -75 29 -29 41
-34 79 -34 147 0 167 206 22 233 -17 3 -37 3 -45 1z"/>
<path d="M9583 11441 c-39 -24 -53 -49 -53 -93 0 -78 73 -132 145 -108 49 16
75 53 75 106 0 88 -93 141 -167 95z"/>
<path d="M10078 11421 c-28 -25 -33 -36 -33 -74 0 -55 31 -93 82 -103 102 -19
165 102 92 175 -42 42 -95 43 -141 2z"/>
<path d="M10592 11425 c-24 -17 -41 -67 -34 -102 8 -40 50 -73 94 -73 85 0
128 93 72 159 -21 26 -33 31 -68 31 -23 0 -51 -7 -64 -15z"/>
<path d="M11133 11433 c-32 -6 -63 -50 -63 -90 0 -99 152 -115 176 -18 10 39
-15 85 -52 101 -19 8 -35 13 -36 13 -2 -1 -13 -4 -25 -6z"/>
<path d="M11630 11417 c-49 -25 -60 -88 -23 -129 23 -25 87 -24 113 2 26 26
27 90 3 113 -26 23 -65 29 -93 14z"/>
<path d="M12126 11399 c-50 -40 -24 -119 40 -119 68 0 97 68 49 115 -30 30
-54 31 -89 4z"/>
<path d="M12649 11396 c-30 -14 -38 -66 -14 -90 36 -36 95 -9 95 43 0 44 -41
67 -81 47z"/>
<path d="M13148 11365 c-8 -19 -8 -28 2 -40 30 -36 82 -3 62 40 -7 15 -20 25
-32 25 -12 0 -25 -10 -32 -25z"/>
<path d="M4255 11241 c-75 -45 -108 -119 -86 -192 37 -122 179 -166 271 -83
49 44 64 82 58 145 -6 56 -28 93 -78 127 -42 28 -122 30 -165 3z"/>
<path d="M4763 11240 c-108 -55 -120 -211 -22 -280 49 -36 133 -39 179 -8 74
51 103 145 65 218 -40 77 -144 110 -222 70z"/>
<path d="M5260 11228 c-48 -33 -72 -70 -77 -119 -10 -96 80 -186 176 -176 148
16 195 220 69 297 -47 28 -125 27 -168 -2z"/>
<path d="M5784 11236 c-17 -8 -44 -31 -60 -51 -75 -99 -1 -245 125 -245 89 0
151 64 151 156 0 113 -111 185 -216 140z"/>
<path d="M6272 11220 c-44 -27 -76 -97 -67 -149 3 -21 20 -54 36 -74 56 -68
149 -74 213 -14 74 71 65 182 -21 238 -39 26 -118 25 -161 -1z"/>
<path d="M6789 11219 c-94 -55 -97 -194 -6 -249 68 -42 168 -16 203 52 38 72
13 158 -56 197 -48 27 -95 26 -141 0z"/>
<path d="M7304 11220 c-11 -4 -33 -22 -47 -40 -33 -38 -37 -115 -10 -161 18
-31 85 -69 119 -69 32 1 102 37 114 61 39 73 30 139 -25 188 -30 26 -44 31
-83 30 -26 0 -56 -4 -68 -9z"/>
<path d="M7811 11213 c-44 -22 -71 -68 -71 -121 0 -77 58 -132 141 -132 35 0
48 6 79 38 49 48 59 96 34 148 -36 72 -116 102 -183 67z"/>
<path d="M8289 11181 c-33 -32 -39 -45 -39 -80 0 -81 50 -134 126 -134 74 0
127 53 127 127 0 76 -53 126 -134 126 -35 0 -48 -6 -80 -39z"/>
<path d="M8840 11207 c-50 -17 -83 -70 -77 -125 8 -76 68 -113 153 -97 55 10
84 45 84 100 0 25 -6 58 -14 73 -24 47 -88 68 -146 49z"/>
<path d="M9328 11193 c-59 -37 -73 -128 -27 -174 15 -15 33 -19 87 -19 73 0
83 4 101 37 21 40 14 100 -17 134 -35 39 -102 49 -144 22z"/>
<path d="M9831 11184 c-31 -22 -52 -75 -45 -113 9 -45 46 -73 103 -79 46 -4
53 -2 81 26 24 25 30 39 30 75 0 37 -6 51 -31 76 -24 25 -39 31 -73 31 -23 0
-52 -7 -65 -16z"/>
<path d="M10364 11191 c-63 -27 -84 -116 -40 -164 64 -69 176 -29 176 64 0 69
-76 125 -136 100z"/>
<path d="M10861 11176 c-84 -47 -52 -176 44 -176 44 0 95 45 95 84 0 39 -21
76 -51 92 -34 17 -57 17 -88 0z"/>
<path d="M11355 11155 c-56 -55 -21 -145 56 -145 50 0 94 48 85 94 -13 69 -94
99 -141 51z"/>
<path d="M11865 11145 c-30 -30 -32 -64 -4 -99 26 -33 79 -36 109 -6 30 30 27
83 -6 109 -35 28 -69 26 -99 -4z"/>
<path d="M12380 11140 c-41 -41 -14 -110 41 -110 33 0 56 19 64 52 5 21 1 33
-19 52 -30 31 -59 33 -86 6z"/>
<path d="M12892 11128 c-17 -17 -15 -54 4 -72 21 -22 34 -20 69 8 l30 24 -24
26 c-26 28 -59 34 -79 14z"/>
<path d="M13417 11120 c-15 -22 -15 -25 0 -42 12 -14 19 -15 30 -7 17 14 17
30 0 54 -13 17 -15 17 -30 -5z"/>
<path d="M3895 10992 c-92 -68 -96 -84 -17 -62 45 12 112 78 112 110 0 11 -1
20 -2 19 -2 0 -43 -30 -93 -67z"/>
<path d="M4005 10996 c-37 -16 -82 -67 -91 -102 -4 -14 -4 -47 -2 -74 12 -122
145 -188 253 -127 116 65 111 244 -8 301 -42 19 -110 20 -152 2z"/>
<path d="M4514 10991 c-55 -25 -87 -71 -92 -136 -6 -68 18 -118 71 -153 82
-55 200 -23 242 63 23 51 17 130 -15 175 -26 36 -90 70 -135 70 -16 0 -48 -9
-71 -19z"/>
<path d="M5012 10983 c-55 -27 -77 -68 -77 -143 0 -75 17 -106 78 -140 49 -28
129 -24 174 8 92 66 80 228 -21 276 -43 20 -112 20 -154 -1z"/>
<path d="M5524 10980 c-25 -13 -49 -35 -62 -59 -78 -139 68 -294 207 -219 54
29 81 76 81 142 0 63 -28 108 -84 135 -53 26 -90 26 -142 1z"/>
<path d="M6022 10970 c-45 -28 -72 -76 -72 -130 0 -54 27 -102 72 -131 26 -16
45 -19 92 -16 54 3 62 7 97 45 49 52 57 125 19 187 -40 64 -140 86 -208 45z"/>
<path d="M6540 10971 c-48 -26 -72 -62 -77 -118 -6 -66 20 -111 80 -141 64
-33 118 -24 169 28 36 35 38 42 38 98 0 51 -4 65 -27 93 -49 58 -121 74 -183
40z"/>
<path d="M7033 10959 c-43 -28 -67 -80 -60 -138 4 -37 13 -52 46 -83 34 -33
47 -38 86 -38 89 0 149 57 149 141 0 54 -21 91 -67 119 -42 26 -112 26 -154
-1z"/>
<path d="M7560 10962 c-53 -26 -83 -77 -77 -131 8 -75 17 -78 151 -45 l116 28
0 36 c0 47 -33 98 -75 116 -45 18 -72 18 -115 -4z"/>
<path d="M8058 10954 c-26 -14 -65 -71 -55 -80 5 -5 174 21 210 32 26 8 21 22
-15 44 -39 24 -102 25 -140 4z"/>
<path d="M10625 10926 c-18 -13 -17 -15 20 -21 22 -3 51 -8 65 -11 l25 -4 -28
25 c-32 28 -54 31 -82 11z"/>
<path d="M11090 10900 c-11 -11 -20 -33 -20 -48 0 -28 3 -29 81 -46 45 -10 83
-15 85 -13 3 3 7 20 11 40 4 29 1 40 -20 61 -34 34 -106 37 -137 6z"/>
<path d="M11622 10913 c-21 -8 -44 -63 -38 -89 23 -91 156 -78 156 15 0 61
-59 98 -118 74z"/>
<path d="M12120 10890 c-42 -42 -8 -120 51 -120 32 0 69 38 69 71 0 57 -80 89
-120 49z"/>
<path d="M12637 10882 c-35 -38 -9 -102 40 -102 47 0 71 71 35 103 -24 22 -55
21 -75 -1z"/>
<path d="M13154 10866 c-15 -12 -17 -19 -8 -32 21 -35 42 -40 66 -17 21 22 21
23 3 43 -21 24 -34 25 -61 6z"/>
<path d="M3612 10778 c-125 -100 -127 -108 -31 -108 73 0 129 37 154 103 17
46 17 88 0 93 -5 1 -61 -38 -123 -88z"/>
<path d="M3755 10746 c-85 -37 -125 -139 -88 -226 l20 -46 -36 18 c-43 22 -99
23 -146 4 -19 -8 -35 -14 -35 -12 0 2 7 21 16 42 16 39 15 117 -2 134 -24 24
-608 -510 -901 -823 -209 -222 -318 -347 -476 -542 l-121 -150 72 -3 73 -3 -3
-67 -3 -67 -67 -3 -68 -3 0 66 c0 36 -4 65 -8 65 -7 0 -192 -242 -192 -251 0
-3 18 -3 40 -1 l40 4 0 -61 0 -61 -64 0 c-53 0 -65 3 -68 17 -2 13 -17 0 -51
-44 -61 -80 -80 -124 -75 -182 l3 -46 -36 0 c-20 0 -44 -7 -53 -14 -44 -37
-506 -837 -506 -877 0 -3 19 -4 43 -2 l42 3 0 -60 0 -60 -63 -3 c-54 -3 -62
-1 -62 15 -1 28 -97 -156 -111 -212 -7 -27 -20 -59 -30 -70 -24 -29 -29 -39
-145 -321 l-107 -259 1 -82 c1 -81 1 -83 -22 -83 -13 0 -28 -6 -33 -12 -5 -7
-50 -139 -99 -293 -78 -246 -89 -291 -92 -367 -4 -77 -6 -88 -22 -88 -15 0
-25 -29 -60 -177 -24 -98 -45 -184 -47 -190 -4 -10 12 -13 61 -13 l66 0 0 -60
0 -60 -60 0 -60 0 0 47 c0 85 -17 32 -54 -167 -49 -267 -63 -364 -76 -514 -6
-71 -15 -137 -20 -146 -7 -14 -17 -104 -34 -318 -5 -53 -4 -53 22 -50 27 3 27
2 30 -61 l3 -63 -35 6 -36 7 0 -58 c0 -32 -3 -121 -6 -198 l-7 -141 42 4 41 4
0 -61 0 -61 -42 0 -43 0 2 -180 c0 -99 4 -188 7 -196 4 -11 16 -14 38 -12 l33
3 3 -63 3 -64 -38 4 -38 3 3 -65 c2 -36 7 -117 13 -180 5 -63 9 -121 9 -127 0
-7 11 -13 24 -13 22 0 24 -4 21 -32 -15 -120 -14 -129 9 -193 66 -182 213
-351 393 -452 111 -62 182 -83 278 -83 69 0 85 -3 85 -15 0 -18 59 -20 195 -5
105 11 202 42 315 100 98 52 134 90 127 136 l-6 33 51 3 51 3 74 105 c40 58
73 113 73 122 0 10 13 44 30 75 31 61 60 197 60 284 l0 49 -45 0 -45 0 0 60 0
60 40 0 40 0 -5 122 c-3 68 -8 156 -11 196 -6 72 -6 73 -32 70 -26 -3 -27 -2
-30 61 l-3 64 30 -6 31 -6 0 194 0 195 -30 0 -30 0 0 60 0 60 35 0 c19 0 35 1
36 3 1 1 9 89 18 195 l16 192 -52 0 -53 0 0 60 0 60 60 0 c70 0 60 -21 90 190
31 211 93 516 151 739 27 107 52 198 55 203 3 4 -18 8 -45 8 l-51 0 0 65 0 65
58 0 c44 0 63 5 74 18 8 9 50 118 93 242 42 124 88 254 101 289 13 35 24 68
24 73 0 6 -19 7 -50 3 l-50 -7 0 71 0 71 69 0 68 0 -5 -26 c-10 -53 15 -13 68
106 40 91 51 128 46 150 -4 24 -2 30 12 30 18 0 41 40 267 474 60 114 74 147
59 143 -10 -3 -34 -8 -51 -12 l-33 -7 0 81 0 81 80 0 c44 0 80 -1 80 -3 0 -1
-4 -18 -10 -36 -12 -42 -4 -34 48 47 49 77 68 149 54 210 l-10 43 31 -7 c65
-15 83 -5 134 69 15 23 43 62 61 87 28 36 33 50 29 78 -5 28 -3 32 12 27 10
-3 27 2 38 12 43 38 183 224 183 243 0 11 6 20 14 20 8 0 56 51 108 112 51 62
152 178 225 257 73 79 130 148 126 154 -10 17 -87 47 -121 47 -120 1 -202
-128 -155 -241 l21 -47 -45 19 c-53 23 -92 24 -137 5 l-33 -14 13 37 c17 47
17 94 0 135 l-14 33 37 -13 c52 -19 96 -17 141 6 88 45 122 142 82 233 l-20
45 34 -20 c47 -28 136 -22 183 12 95 67 91 219 -6 285 -44 29 -130 34 -177 10
-38 -20 -39 -20 -16 18 36 59 21 153 -32 204 -55 53 -124 67 -192 39 l-33 -14
13 37 c17 48 17 94 -1 137 -11 26 -11 34 -2 30 84 -34 133 -31 194 13 71 51
91 135 54 217 -22 48 -59 77 -119 93 -40 11 -72 8 -124 -14 -17 -7 -17 -5 -3
29 19 45 19 87 0 133 -20 46 -20 46 15 28 37 -19 112 -19 149 -1 95 50 130
178 71 258 l-20 27 37 -21 c45 -27 124 -29 170 -5 118 62 122 235 9 302 -48
28 -112 32 -161 11z m-505 -321 c32 -19 101 -19 145 -1 l35 15 -15 -29 c-19
-37 -19 -101 -1 -145 17 -40 18 -40 -20 -20 -34 17 -107 20 -136 4 -11 -6 -22
-9 -24 -7 -2 3 2 29 8 60 10 49 9 59 -9 97 -22 45 -21 47 17 26z m-97 -287
c-14 -41 -13 -93 2 -129 5 -15 2 -15 -34 -6 -28 8 -56 8 -91 1 l-49 -10 7 25
c9 33 9 89 0 121 l-7 26 68 -4 c39 -2 77 1 87 7 30 17 32 13 17 -31z m257
-242 c-14 -39 -12 -101 4 -141 l15 -35 -31 16 c-31 16 -125 16 -160 0 -15 -7
-15 -4 -3 31 17 46 18 83 5 119 -6 15 -9 28 -8 30 2 1 24 -2 49 -8 36 -8 56
-8 90 4 24 8 45 13 47 12 1 -1 -2 -13 -8 -28z m-510 -2 c-13 -33 -13 -96 0
-129 9 -23 8 -26 -6 -21 -36 14 -93 17 -128 8 -31 -9 -37 -8 -32 3 13 36 17
86 8 118 l-10 37 56 -6 c32 -3 68 -1 82 4 37 16 40 14 30 -14z m165 -244 c19
0 46 5 61 10 15 6 29 9 31 7 2 -3 -2 -24 -8 -49 -10 -37 -10 -53 3 -92 15 -46
15 -46 -6 -39 -11 5 -53 8 -93 8 l-72 0 7 25 c9 33 9 88 -1 122 -7 26 -6 27
19 18 14 -6 40 -10 59 -10z m-425 -75 l0 -75 -75 0 -75 0 0 75 0 75 75 0 75 0
0 -75z m689 -172 c31 2 64 8 73 12 16 6 17 4 7 -25 -11 -31 -8 -120 6 -152 7
-17 5 -17 -29 -3 -44 19 -87 19 -130 1 l-33 -14 14 42 c14 39 13 99 -3 140 -6
16 -5 17 16 6 14 -7 45 -10 79 -7z m-491 -7 c15 3 34 8 44 10 14 4 15 -3 11
-55 -3 -32 -1 -73 5 -89 l10 -30 -30 10 c-16 6 -56 8 -88 5 l-58 -5 10 36 c10
34 7 79 -7 114 -6 14 -2 15 35 7 22 -5 53 -7 68 -3z m-458 -71 l0 -75 -70 0
-70 0 0 75 0 75 70 0 70 0 0 -75z m1294 -172 c-21 -39 -25 -57 -20 -97 3 -27
12 -59 21 -72 18 -28 17 -29 -24 -8 -33 16 -124 16 -163 -1 -17 -7 -17 -5 -3
29 8 19 15 49 15 66 0 17 -7 47 -15 66 -14 34 -14 36 3 29 9 -5 44 -10 77 -12
52 -4 65 -1 95 20 19 14 36 26 37 26 1 1 -9 -20 -23 -46z m-520 -20 c-16 -47
-17 -78 0 -124 l12 -35 -35 12 c-44 16 -81 17 -117 4 -15 -6 -28 -9 -30 -7 -2
1 2 22 8 45 7 30 7 54 0 84 -6 23 -10 43 -9 44 1 2 22 -2 47 -7 33 -7 57 -6
90 5 25 8 46 14 46 15 1 1 -4 -16 -12 -36z m-519 -63 l0 -80 -72 0 -73 0 0 80
0 80 73 0 72 0 0 -80z m775 -184 c-15 -40 -12 -113 6 -147 l15 -30 -30 15
c-34 18 -107 21 -146 6 -26 -10 -27 -9 -19 17 11 37 11 112 0 142 -7 21 -6 23
10 16 39 -15 100 -17 134 -2 19 8 36 13 38 12 1 -1 -2 -14 -8 -29z m-510 -2
c-13 -34 -13 -110 1 -136 9 -17 8 -19 -8 -14 -49 14 -94 17 -127 7 -31 -8 -37
-7 -32 4 13 35 17 85 8 117 l-10 36 63 -6 c36 -2 70 0 81 6 29 17 34 14 24
-14z m-520 -64 l0 -70 -70 0 -70 0 0 70 0 70 70 0 70 0 0 -70z m769 -218 c-10
-43 -10 -58 4 -93 15 -38 15 -40 -1 -34 -33 14 -129 17 -152 5 -19 -10 -21
-10 -17 7 15 51 17 83 9 120 l-9 40 61 -4 c33 -3 72 0 86 5 14 5 26 9 28 7 1
-1 -3 -25 -9 -53z m-509 -37 l0 -75 -75 0 -75 0 0 75 0 75 75 0 75 0 0 -75z
m-510 0 l0 -65 -70 0 -70 0 0 65 0 65 70 0 70 0 0 -65z m1195 -170 c33 0 68 4
77 9 16 7 17 5 7 -24 -11 -31 -8 -120 6 -152 6 -16 4 -16 -35 -1 -34 14 -51
15 -93 6 -29 -6 -53 -10 -54 -9 -1 0 3 22 9 48 9 37 8 56 -4 92 -15 46 -15 46
6 39 11 -5 48 -8 81 -8z m-425 -21 c-13 -32 -13 -95 -1 -128 10 -24 9 -24 -20
-14 -17 6 -55 8 -85 6 l-54 -5 0 79 0 79 48 -6 c26 -4 58 -2 72 4 43 17 51 14
40 -15z m-520 -64 l0 -70 -67 0 -68 0 0 70 0 70 68 0 67 0 0 -70z m-510 0 l0
-60 -65 0 -65 0 0 60 0 60 65 0 65 0 0 -60z m1284 -187 c-16 -46 -17 -83 -4
-119 6 -15 9 -28 8 -30 -2 -2 -23 1 -46 7 -26 6 -58 6 -84 0 -23 -6 -44 -9
-45 -7 -1 1 3 19 9 39 8 27 8 50 1 84 -6 27 -11 49 -10 50 1 1 23 -3 48 -9 37
-9 55 -8 90 4 24 9 45 16 45 17 1 0 -4 -16 -12 -36z m-514 -63 l0 -80 -75 0
-75 0 0 80 0 80 75 0 75 0 0 -80z m-515 0 l0 -65 -65 0 -65 0 -3 54 c-5 80 -2
82 70 79 l63 -3 0 -65z m-515 0 l0 -60 -60 0 -60 0 0 60 0 60 60 0 60 0 0 -60z
m1288 -191 c-6 -17 -8 -57 -5 -90 l5 -59 -26 7 c-34 10 -80 10 -113 0 l-27 -7
10 46 c7 29 7 59 0 84 l-9 37 61 -4 c33 -3 72 0 86 5 14 6 26 11 27 11 1 1 -3
-13 -9 -30z m-518 -64 l0 -75 -68 0 -68 0 0 75 0 75 68 0 68 0 0 -75z m-1020
5 l0 -60 -60 0 -60 0 0 60 0 60 60 0 60 0 0 -60z m510 -5 l0 -66 -62 3 -63 3
-3 63 -3 62 66 0 65 0 0 -65z m770 -250 l0 -75 -75 0 -75 0 0 75 0 75 75 0 75
0 0 -75z m-510 0 l0 -65 -70 0 -70 0 0 65 0 65 70 0 70 0 0 -65z m-520 -5 l0
-60 -60 0 -60 0 0 60 0 60 60 0 60 0 0 -60z m770 -250 l0 -70 -70 0 -70 0 0
70 0 70 70 0 70 0 0 -70z m-1020 0 l0 -60 -60 0 -60 0 0 60 0 60 60 0 60 0 0
-60z m510 0 l0 -60 -65 0 -65 0 0 60 0 60 65 0 65 0 0 -60z m765 -256 l0 -76
-50 6 c-27 3 -60 6 -72 6 -22 0 -23 4 -23 70 l0 70 73 0 72 0 0 -76z m-1525 8
c0 -32 -2 -61 -4 -63 -2 -2 -32 -2 -65 -1 l-61 4 0 59 0 59 65 0 65 0 0 -58z
m500 -4 l0 -63 -60 3 -60 4 0 59 0 59 60 0 60 0 0 -62z m520 -3 l0 -65 -32 0
c-18 0 -50 3 -70 6 l-38 7 0 58 0 59 70 0 70 0 0 -65z m213 -185 c27 0 27 0
27 -70 l0 -71 -67 3 -68 3 -3 59 c-4 82 0 90 46 82 20 -3 49 -6 65 -6z m-1534
-6 c30 -6 31 -7 31 -65 l0 -59 -60 0 -60 0 0 65 c0 65 0 65 29 65 16 0 43 -3
60 -6z m504 0 l37 -7 0 -58 0 -59 -60 0 -60 0 0 65 c0 72 0 72 83 59z m525 0
c20 -6 22 -13 22 -66 l0 -59 -62 3 -63 3 -3 63 -3 62 43 0 c24 0 53 -3 66 -6z
m282 -309 l0 -65 -65 0 -65 0 0 65 0 65 65 0 65 0 0 -65z m-1020 -5 l0 -60
-60 0 -60 0 0 60 0 60 60 0 60 0 0 -60z m500 0 l0 -60 -60 0 -60 0 0 60 0 60
60 0 60 0 0 -60z m-760 -250 l0 -60 -60 0 -60 0 0 60 0 60 60 0 60 0 0 -60z
m510 0 l0 -60 -60 0 -60 0 0 60 0 60 60 0 60 0 0 -60z m510 0 l0 -60 -65 0
-65 0 0 60 0 60 65 0 65 0 0 -60z m-1270 -250 l0 -60 -60 0 -60 0 0 60 0 60
60 0 60 0 0 -60z m508 -2 l3 -58 -61 0 -60 0 0 60 0 61 58 -3 57 -3 3 -57z
m502 2 l0 -60 -60 0 -60 0 0 60 0 60 60 0 60 0 0 -60z m520 -5 l0 -65 -65 0
-65 0 0 65 0 65 65 0 65 0 0 -65z m-260 -250 l0 -65 -65 0 -65 0 0 58 c0 32 3
62 7 65 3 4 33 7 65 7 l58 0 0 -65z m-1020 -5 l0 -61 -57 3 -58 3 -3 58 -3 57
61 0 60 0 0 -60z m510 0 l0 -60 -60 0 -60 0 0 60 0 60 60 0 60 0 0 -60z m-760
-250 l0 -60 -60 0 -60 0 0 60 0 60 60 0 60 0 0 -60z m510 0 l0 -60 -60 0 -60
0 0 60 0 60 60 0 60 0 0 -60z m500 0 l0 -60 -60 0 -60 0 0 60 0 60 60 0 60 0
0 -60z m-760 -250 l0 -60 -60 0 -60 0 0 60 0 60 60 0 60 0 0 -60z m510 0 l0
-60 -60 0 -60 0 0 60 0 60 60 0 60 0 0 -60z m510 0 l0 -60 -65 0 -65 0 0 60 0
60 65 0 65 0 0 -60z m-1270 -255 l0 -65 -60 0 -60 0 0 65 0 65 60 0 60 0 0
-65z m505 0 l0 -60 -57 -3 -58 -3 0 66 0 66 58 -3 57 -3 0 -60z m505 0 l0 -65
-60 0 -60 0 0 65 0 65 60 0 60 0 0 -65z m-1260 -255 l0 -60 -60 0 -60 0 0 60
0 60 60 0 60 0 0 -60z m500 0 l0 -60 -60 0 -60 0 0 60 0 60 60 0 60 0 0 -60z
m510 0 l0 -60 -60 0 -60 0 0 60 0 60 60 0 60 0 0 -60z m510 0 l0 -60 -65 0
-65 0 0 60 0 60 65 0 65 0 0 -60z m-1270 -250 l0 -60 -60 0 -60 0 0 60 0 60
60 0 60 0 0 -60z m510 0 l0 -60 -60 0 -60 0 0 60 0 60 60 0 60 0 0 -60z m500
0 l0 -60 -60 0 -60 0 0 60 0 60 60 0 60 0 0 -60z m-1260 -250 l0 -60 -60 0
-60 0 0 60 0 60 60 0 60 0 0 -60z m500 0 l0 -60 -60 0 -60 0 0 60 0 60 60 0
60 0 0 -60z m510 0 l0 -60 -60 0 -60 0 0 60 0 60 60 0 60 0 0 -60z m-760 -260
l0 -60 -60 0 -60 0 0 60 0 60 60 0 60 0 0 -60z m508 3 l-3 -58 -57 -3 -58 -3
0 61 0 60 60 0 61 0 -3 -57z m502 -3 l0 -60 -60 0 -60 0 0 60 0 60 60 0 60 0
0 -60z m-1260 -250 l0 -60 -60 0 -60 0 0 60 0 60 60 0 60 0 0 -60z m500 0 l0
-60 -60 0 -60 0 0 60 0 60 60 0 60 0 0 -60z m510 0 l0 -60 -60 0 -60 0 0 60 0
60 60 0 60 0 0 -60z m-760 -250 l0 -60 -60 0 -60 0 0 60 0 60 60 0 60 0 0 -60z
m510 0 l0 -60 -60 0 -60 0 0 60 0 60 60 0 60 0 0 -60z m500 0 l0 -60 -60 0
-60 0 0 60 0 60 60 0 60 0 0 -60z m-1260 -250 l0 -60 -60 0 -60 0 0 60 0 60
60 0 60 0 0 -60z m500 0 l0 -60 -60 0 -60 0 0 53 c0 30 3 57 7 60 3 4 30 7 60
7 l53 0 0 -60z m510 0 l0 -60 -60 0 -60 0 0 60 0 60 60 0 60 0 0 -60z m-760
-260 l0 -60 -60 0 -60 0 0 60 0 60 60 0 60 0 0 -60z m510 0 l0 -60 -60 0 -60
0 0 60 0 60 60 0 60 0 0 -60z m500 0 l0 -60 -60 0 -60 0 0 60 0 60 60 0 60 0
0 -60z m-1260 -250 l0 -60 -60 0 -60 0 0 60 0 60 60 0 60 0 0 -60z m500 0 l0
-60 -60 0 -60 0 0 60 0 60 60 0 60 0 0 -60z m510 0 l0 -60 -60 0 -60 0 0 60 0
60 60 0 60 0 0 -60z m-760 -250 l0 -60 -60 0 -60 0 0 60 0 60 60 0 60 0 0 -60z
m510 0 l0 -60 -60 0 -60 0 0 60 0 60 60 0 60 0 0 -60z m500 0 l0 -60 -60 0
-60 0 0 60 0 60 60 0 60 0 0 -60z m-1260 -260 l0 -60 -60 0 -60 0 0 60 0 60
60 0 60 0 0 -60z m500 0 l0 -61 -57 3 -58 3 -3 58 -3 57 61 0 60 0 0 -60z
m510 0 l0 -60 -60 0 -60 0 0 60 0 60 60 0 60 0 0 -60z m-760 -250 l0 -60 -60
0 -60 0 0 60 0 60 60 0 60 0 0 -60z m510 0 l0 -60 -60 0 -60 0 0 60 0 60 60 0
60 0 0 -60z"/>
<path d="M4281 10753 c-13 -3 -43 -24 -66 -48 -64 -64 -71 -133 -23 -213 63
-104 238 -91 292 21 63 134 -51 269 -203 240z"/>
<path d="M4749 10727 c-19 -12 -44 -42 -57 -67 -73 -141 77 -291 217 -218 60
31 83 65 89 132 3 43 0 62 -18 94 -44 79 -158 108 -231 59z"/>
<path d="M5270 10728 c-149 -76 -95 -298 73 -298 159 0 217 196 86 293 -42 30
-106 33 -159 5z"/>
<path d="M5773 10724 c-68 -34 -97 -124 -65 -196 68 -154 292 -110 292 57 0
120 -119 192 -227 139z"/>
<path d="M6295 10726 c-79 -34 -112 -124 -75 -201 27 -57 72 -85 135 -85 88 0
149 62 149 151 0 106 -112 178 -209 135z"/>
<path d="M6782 10710 c-59 -36 -88 -140 -51 -186 12 -15 269 75 269 94 0 26
-32 73 -63 92 -42 26 -112 26 -155 0z"/>
<path d="M11865 10640 c-22 -25 -16 -32 49 -54 66 -22 76 -20 76 9 0 58 -86
88 -125 45z"/>
<path d="M12377 10632 c-23 -25 -21 -68 3 -92 27 -27 56 -25 85 5 14 13 25 33
25 45 0 50 -79 80 -113 42z"/>
<path d="M12892 10628 c-7 -7 -12 -24 -12 -38 0 -54 50 -67 91 -24 l24 26 -28
24 c-31 26 -56 31 -75 12z"/>
<path d="M13411 10606 c-9 -11 -10 -20 -1 -35 14 -26 22 -26 38 0 10 16 10 24
1 35 -15 18 -23 18 -38 0z"/>
<path d="M4029 10500 c-103 -31 -151 -155 -97 -252 84 -149 318 -86 318 86 0
114 -113 199 -221 166z"/>
<path d="M4499 10477 c-107 -72 -107 -212 0 -284 72 -49 175 -23 228 56 49 72
23 175 -56 228 -25 17 -48 23 -86 23 -38 0 -61 -6 -86 -23z"/>
<path d="M5045 10493 c-32 -8 -84 -51 -100 -83 -19 -37 -19 -113 0 -150 8 -16
31 -41 51 -57 48 -36 137 -40 181 -7 69 51 94 144 58 214 -32 61 -123 101
-190 83z"/>
<path d="M5510 10468 c-96 -66 -91 -221 10 -273 70 -36 169 -9 210 57 43 71
18 175 -52 218 -47 28 -125 27 -168 -2z"/>
<path d="M6033 10469 c-47 -23 -67 -48 -82 -107 -10 -35 -9 -45 11 -79 30 -53
48 -73 67 -73 27 0 217 96 224 113 8 21 -9 80 -33 110 -24 30 -78 57 -117 57
-15 0 -47 -9 -70 -21z"/>
<path d="M6539 10465 c-15 -8 -29 -22 -33 -30 -7 -19 8 -16 87 20 l52 24 -40
0 c-22 0 -52 -6 -66 -14z"/>
<path d="M12626 10361 l-28 -29 52 -11 c84 -18 90 -16 79 21 -16 56 -60 64
-103 19z"/>
<path d="M3777 10250 c-151 -47 -167 -253 -26 -326 42 -21 117 -18 163 9 113
64 111 243 -3 302 -38 19 -99 26 -134 15z"/>
<path d="M4243 10225 c-56 -34 -88 -99 -79 -162 22 -162 230 -206 312 -67 22
37 26 54 22 99 -11 128 -144 196 -255 130z"/>
<path d="M4785 10239 c-69 -20 -124 -111 -111 -183 9 -45 41 -93 78 -117 43
-26 140 -23 180 6 100 75 86 235 -26 286 -44 20 -74 22 -121 8z"/>
<path d="M5264 10221 c-145 -88 -78 -312 89 -298 154 13 203 216 73 296 -43
27 -120 28 -162 2z"/>
<path d="M5780 10221 c-52 -27 -80 -74 -80 -132 0 -27 5 -49 10 -49 6 0 67 30
135 67 122 65 125 67 108 86 -42 47 -116 59 -173 28z"/>
<path d="M4002 9983 c-56 -27 -86 -76 -90 -147 -3 -51 0 -66 20 -95 36 -53 71
-74 131 -79 105 -8 178 54 184 156 3 46 -1 65 -19 97 -44 75 -148 107 -226 68z"/>
<path d="M4512 9979 c-59 -30 -85 -70 -90 -141 -4 -51 -1 -64 22 -99 30 -44
91 -79 141 -79 45 0 109 34 135 70 32 45 38 124 15 175 -38 79 -143 115 -223
74z"/>
<path d="M9908 9989 c-120 -28 -243 -130 -299 -246 -28 -58 -34 -82 -37 -160
-5 -102 6 -162 43 -236 40 -80 74 -114 227 -228 920 -688 1496 -1667 1648
-2799 27 -200 38 -637 21 -842 -35 -426 -125 -810 -278 -1198 -289 -730 -775
-1356 -1415 -1823 -865 -630 -1966 -900 -3018 -740 -222 34 -283 38 -349 23
-130 -28 -254 -130 -313 -257 -44 -92 -51 -217 -19 -321 36 -119 128 -224 239
-274 87 -39 397 -86 717 -109 211 -15 632 -7 845 16 1879 199 3474 1417 4165
3180 327 834 421 1762 269 2668 -200 1200 -848 2302 -1806 3074 -191 153 -322
240 -395 263 -69 21 -177 25 -245 9z"/>
<path d="M5010 9969 c-51 -30 -73 -65 -78 -124 -15 -179 208 -243 297 -85 43
77 14 177 -63 214 -47 22 -113 20 -156 -5z"/>
<path d="M5513 9960 c-29 -17 -60 -57 -51 -65 2 -2 37 16 78 40 73 44 74 45
40 45 -19 0 -49 -9 -67 -20z"/>
<path d="M3751 9732 c-119 -60 -131 -227 -22 -299 116 -78 271 5 271 145 0
123 -140 210 -249 154z"/>
<path d="M4264 9731 c-70 -32 -114 -112 -100 -184 35 -186 312 -181 333 6 7
63 -2 91 -43 137 -54 60 -118 73 -190 41z"/>
<path d="M4761 9723 c-65 -32 -104 -128 -81 -197 14 -44 64 -96 92 -96 29 0
217 140 224 167 9 32 -32 97 -76 122 -46 25 -112 27 -159 4z"/>
<path d="M7205 9692 c-101 -31 -166 -71 -245 -151 -88 -88 -130 -166 -155
-287 -50 -240 75 -498 296 -606 102 -51 136 -57 354 -68 220 -10 358 -29 540
-72 504 -120 948 -369 1315 -737 149 -149 230 -249 351 -429 196 -294 336
-631 404 -972 42 -210 50 -295 49 -555 0 -206 -4 -275 -22 -390 -76 -487 -268
-921 -578 -1310 -467 -584 -1165 -972 -1882 -1046 -162 -17 -495 -7 -647 20
-577 99 -1091 374 -1521 812 -258 265 -448 538 -614 884 -55 114 -72 139 -134
200 -116 115 -236 165 -397 167 -159 1 -295 -58 -406 -176 -109 -115 -158
-238 -157 -396 2 -106 28 -188 118 -368 342 -683 832 -1241 1446 -1647 501
-332 1035 -532 1630 -612 188 -25 677 -25 865 0 730 98 1383 377 1965 841 160
127 488 456 611 611 451 569 717 1177 819 1870 142 969 -105 1991 -675 2790
-181 254 -489 584 -715 767 -681 552 -1492 855 -2335 873 -193 4 -227 3 -280
-13z"/>
<path d="M4027 9485 c-75 -26 -117 -84 -117 -160 0 -95 64 -164 158 -172 149
-14 241 176 139 285 -46 50 -120 69 -180 47z"/>
<path d="M4520 9479 c-107 -43 -136 -196 -51 -273 20 -19 22 -18 141 79 66 54
123 101 125 106 8 11 -58 77 -89 89 -34 12 -93 12 -126 -1z"/>
<path d="M4254 9222 c-93 -44 -124 -193 -54 -257 19 -17 22 -16 82 37 35 31
92 82 127 115 l65 59 -38 29 c-49 37 -123 44 -182 17z"/>
<path d="M3998 8970 c-56 -30 -82 -73 -86 -145 -2 -48 1 -67 18 -94 l22 -34
119 119 c65 65 118 123 116 129 -6 19 -72 45 -112 45 -22 -1 -57 -10 -77 -20z"/>
<path d="M7097 8225 c-432 -52 -851 -225 -1197 -493 -110 -86 -293 -263 -388
-377 -237 -283 -431 -681 -505 -1040 -42 -200 -51 -298 -51 -525 0 -249 15
-374 74 -606 108 -424 321 -796 640 -1114 391 -391 864 -625 1420 -701 121
-17 485 -17 610 -1 260 35 375 76 466 166 218 218 155 585 -123 723 -67 33
-86 38 -167 41 -59 3 -117 -1 -166 -12 -341 -72 -698 -22 -1020 145 -321 166
-584 449 -714 769 -203 498 -152 1047 136 1480 118 178 357 394 537 485 131
66 315 123 501 157 123 21 403 16 530 -11 410 -87 747 -303 982 -632 30 -42
85 -136 123 -210 79 -153 136 -219 231 -267 233 -117 496 -28 612 207 36 74
37 77 37 195 l0 121 -62 128 c-35 71 -86 168 -115 215 -189 313 -507 631 -821
821 -299 181 -673 306 -1016 341 -137 13 -420 11 -554 -5z"/>
<path d="M4454 8079 c-60 -10 -109 -27 -80 -28 30 -1 -1 -31 -33 -31 -25 1
-25 1 -7 15 33 25 7 17 -65 -21 -80 -42 -179 -136 -227 -216 -146 -243 -105
-548 100 -744 116 -111 247 -165 403 -166 177 -2 305 50 431 176 86 86 128
154 160 262 24 80 24 238 0 319 -89 300 -380 485 -682 434z m131 -19 c8 -13
-20 -24 -41 -16 -20 8 -9 26 16 26 10 0 22 -5 25 -10z m85 0 c12 -8 10 -10
-10 -10 -14 0 -32 5 -40 10 -12 8 -10 10 10 10 14 0 32 -5 40 -10z m-162 -22
c-5 -15 -33 -22 -54 -14 -24 9 -6 26 27 26 20 0 29 -4 27 -12z m120 -25 c2 -8
-6 -13 -22 -13 -26 0 -40 12 -29 24 11 11 46 2 51 -11z m70 2 c-3 -12 -29 -8
-43 7 -7 6 -1 8 18 6 15 -2 26 -7 25 -13z m87 -6 c5 -5 1 -9 -12 -9 -11 0 -27
7 -34 16 -12 15 -11 16 11 9 14 -4 29 -11 35 -16z m-355 1 c0 -6 -11 -16 -25
-22 -20 -9 -28 -9 -38 1 -9 9 -9 14 3 21 20 13 60 13 60 0z m-135 -20 c-10
-11 -28 -20 -39 -20 -20 1 -20 1 3 20 13 11 30 20 39 20 13 0 12 -3 -3 -20z
m260 11 c8 -14 -30 -32 -49 -25 -30 11 -16 34 20 34 13 0 25 -4 29 -9z m291
-19 c-4 -3 -14 2 -24 12 -16 18 -16 18 6 6 13 -6 21 -14 18 -18z m-110 -6 c10
-8 16 -18 12 -22 -11 -10 -60 14 -53 26 8 14 18 13 41 -4z m-386 -4 c0 -15
-24 -32 -47 -32 -27 0 -30 15 -5 29 21 12 52 14 52 3z m123 1 c12 -11 -14 -33
-39 -33 -23 0 -32 19 -17 33 8 9 48 9 56 0z m203 -4 c3 -6 1 -16 -5 -22 -13
-13 -65 8 -56 23 8 13 52 13 61 -1z m140 -4 c19 -14 19 -14 -2 -15 -12 0 -27
7 -34 15 -17 20 9 21 36 0z m-586 -13 c0 -15 -38 -44 -51 -40 -8 3 -4 12 11
26 25 23 40 28 40 14z m375 -12 c0 -23 -59 -20 -63 3 -3 15 2 18 30 15 21 -2
33 -8 33 -18z m275 5 c7 -8 8 -15 2 -15 -5 0 -15 7 -22 15 -7 8 -8 15 -2 15 5
0 15 -7 22 -15z m-480 -20 c0 -22 -47 -42 -62 -27 -8 8 -8 15 2 27 16 20 60
20 60 0z m-130 -8 c0 -19 -21 -37 -42 -37 -22 0 -23 8 -1 32 19 21 43 24 43 5z
m256 1 c6 -10 -20 -38 -35 -38 -17 1 -33 20 -28 34 7 18 52 22 63 4z m189 -1
c24 -18 11 -40 -18 -31 -28 9 -39 26 -24 36 16 11 20 10 42 -5z m74 -1 c7 -8
8 -16 4 -19 -12 -7 -53 11 -53 23 0 15 36 12 49 -4z m62 -6 c18 -15 20 -19 8
-20 -9 0 -24 9 -34 20 -23 26 -4 26 26 0z m89 5 c11 -13 10 -14 -4 -9 -9 3
-16 10 -16 15 0 13 6 11 20 -6z m-295 -18 c33 -25 -8 -51 -44 -28 -16 11 -8
41 12 41 7 0 21 -6 32 -13z m271 -8 c19 -22 19 -22 -3 -10 -24 12 -39 31 -25
31 5 0 17 -10 28 -21z m-759 -13 c-7 -19 -47 -41 -47 -26 0 13 40 53 47 46 3
-3 3 -12 0 -20z m161 -7 c-4 -27 -46 -45 -55 -24 -7 20 14 45 39 45 14 0 19
-6 16 -21z m130 -1 c-3 -25 -43 -37 -61 -19 -15 15 10 41 40 41 20 0 24 -4 21
-22z m116 6 c21 -8 21 -40 0 -48 -17 -7 -54 10 -54 24 0 5 8 14 18 19 21 13
17 12 36 5z m407 -11 c13 -16 12 -17 -3 -4 -10 7 -18 15 -18 17 0 8 8 3 21
-13z m-771 -5 c0 -14 -30 -48 -42 -48 -15 0 -8 39 10 49 23 14 32 13 32 -1z
m566 -2 c27 -20 6 -43 -25 -27 -22 12 -26 23 -14 34 9 10 17 9 39 -7z m75 -2
c11 -14 9 -15 -16 -12 -16 1 -30 9 -33 16 -6 18 33 15 49 -4z m55 1 c18 -15
18 -15 -5 -13 -14 2 -26 9 -29 16 -5 17 10 15 34 -3z m-201 -18 c21 -16 13
-37 -14 -37 -26 0 -44 23 -29 38 15 15 20 15 43 -1z m255 3 c8 -5 12 -11 9
-14 -3 -3 -14 1 -25 9 -21 16 -8 20 16 5z m-573 -16 c7 -18 -20 -44 -44 -44
-20 0 -27 28 -13 45 17 20 49 19 57 -1z m131 -22 c-4 -24 -56 -29 -65 -6 -9
24 24 47 49 33 11 -6 18 -18 16 -27z m-418 -7 c-7 -8 -16 -15 -21 -15 -14 0
-10 17 8 36 20 20 32 1 13 -21z m160 15 c0 -21 -34 -45 -50 -35 -24 15 -1 55
32 55 11 0 18 -7 18 -20z m388 -28 c-4 -23 -41 -27 -58 -6 -12 14 -12 18 4 30
23 17 59 1 54 -24z m238 24 c10 -8 16 -17 12 -21 -11 -11 -48 5 -48 21 0 18
11 18 36 0z m-60 -10 c27 -20 6 -43 -25 -27 -22 12 -26 23 -14 34 9 10 17 9
39 -7z m124 -1 c10 -12 10 -15 -3 -15 -8 0 -20 7 -27 15 -10 12 -10 15 3 15 8
0 20 -7 27 -15z m-802 -11 c-3 -19 -34 -41 -43 -32 -4 3 -2 16 5 27 13 25 43
28 38 5z m858 -12 c-4 -3 -14 2 -24 12 -16 18 -16 18 6 6 13 -6 21 -14 18 -18z
m-241 5 c10 -8 15 -19 11 -25 -10 -17 -41 -15 -57 4 -10 13 -10 17 2 25 19 12
22 11 44 -4z m-448 -13 c5 -15 -24 -44 -43 -44 -21 0 -29 27 -13 46 14 17 50
15 56 -2z m130 0 c7 -18 -20 -44 -44 -44 -17 0 -27 25 -19 45 7 20 55 19 63
-1z m130 -10 c3 -8 -1 -22 -9 -31 -12 -12 -20 -13 -37 -4 -21 12 -27 31 -14
44 12 13 54 7 60 -9z m-531 -32 c-14 -14 -16 -14 -16 -1 0 20 23 44 29 28 2
-6 -4 -18 -13 -27z m147 32 c3 -4 2 -15 -4 -25 -11 -21 -49 -26 -49 -6 0 26
37 47 53 31z m748 -10 c11 -14 10 -15 -11 -12 -13 1 -25 9 -28 16 -5 17 23 15
39 -4z m49 1 c14 -16 10 -18 -14 -9 -9 3 -16 10 -16 15 0 14 16 11 30 -6z
m-285 -20 c0 -25 -37 -32 -54 -11 -18 21 -4 38 27 34 19 -2 27 -9 27 -23z
m169 19 c22 -9 20 -34 -3 -34 -21 0 -45 23 -34 33 8 9 17 9 37 1z m172 -22
c-4 -3 -14 2 -24 12 -16 18 -16 18 6 6 13 -6 21 -14 18 -18z m-946 2 c0 -13
-21 -44 -30 -44 -11 0 -14 33 -3 43 8 8 33 9 33 1z m278 -31 c-4 -22 -32 -38
-52 -30 -21 8 -21 43 1 56 22 12 55 -5 51 -26z m441 28 c16 -10 8 -41 -11 -41
-23 0 -41 18 -35 34 7 18 25 20 46 7z m-571 -23 c4 -21 -25 -49 -43 -42 -20 8
-19 29 1 49 19 18 38 15 42 -7z m257 -8 c0 -20 -6 -26 -28 -28 -29 -4 -44 16
-33 44 4 10 15 14 33 12 22 -2 28 -8 28 -28z m130 -10 c0 -30 -35 -40 -55 -15
-10 12 -10 18 0 30 20 25 55 15 55 -15z m-501 -18 c-13 -19 -35 -23 -41 -6 -2
7 4 19 13 28 22 23 44 5 28 -22z m631 3 c0 -23 -30 -32 -50 -15 -21 18 -7 42
24 38 18 -2 26 -9 26 -23z m-715 -19 c0 -7 -7 -19 -15 -26 -12 -10 -15 -9 -15
7 0 11 3 23 7 26 11 12 23 8 23 -7z m255 4 c12 -20 -6 -50 -31 -50 -18 0 -24
5 -24 23 0 13 3 27 7 30 10 10 41 8 48 -3z m130 -20 c0 -20 -6 -26 -28 -28
-32 -4 -46 20 -26 44 19 24 54 14 54 -16z m133 18 c18 -18 15 -36 -7 -48 -27
-14 -51 -2 -51 25 0 32 35 46 58 23z m-382 -13 c7 -18 -12 -45 -32 -45 -17 0
-18 32 -2 48 16 16 27 15 34 -3z m514 0 c18 -21 5 -45 -25 -45 -14 0 -28 7
-31 15 -7 17 12 45 31 45 7 0 18 -7 25 -15z m-610 -29 c0 -8 -7 -19 -15 -26
-12 -10 -16 -9 -21 4 -7 18 13 49 27 40 5 -3 9 -11 9 -18z m280 -25 c7 -15 6
-23 -6 -35 -18 -18 -17 -18 -38 -10 -19 7 -21 50 -3 57 24 10 36 7 47 -12z
m134 -3 c8 -14 7 -21 -6 -34 -30 -30 -75 9 -48 42 16 18 39 15 54 -8z m-503
-21 c-8 -8 -11 -7 -11 4 0 20 13 34 18 19 3 -7 -1 -17 -7 -23z m245 18 c7 -18
-13 -45 -33 -45 -17 0 -27 24 -19 45 7 20 45 19 52 0z m397 3 c7 -21 -12 -48
-33 -48 -21 0 -40 27 -33 48 3 6 17 12 33 12 16 0 30 -6 33 -12z m-509 -7 c9
-14 -4 -41 -19 -41 -18 0 -26 15 -19 34 7 17 29 21 38 7z m-90 -44 c-3 -9 -10
-17 -15 -17 -11 0 -12 34 -2 43 11 12 24 -8 17 -26z m144 -31 c-4 -25 -36 -34
-44 -12 -8 21 13 46 32 39 8 -3 14 -15 12 -27z m117 4 c0 -18 -6 -26 -23 -28
-13 -2 -25 3 -28 12 -10 26 4 48 28 44 17 -2 23 -10 23 -28z m139 14 c8 -21
-11 -44 -36 -44 -21 0 -33 22 -24 45 7 20 52 19 60 -1z m131 -14 c0 -34 -50
-42 -60 -11 -9 29 3 43 33 39 21 -2 27 -8 27 -28z m-485 -10 c0 -11 -6 -20
-13 -20 -19 0 -27 10 -20 26 8 21 33 17 33 -6z m-80 -15 c0 -8 -4 -15 -10 -15
-5 0 -10 7 -10 15 0 8 5 15 10 15 6 0 10 -7 10 -15z m240 -47 c0 -14 -6 -19
-22 -16 -26 3 -37 36 -17 49 17 10 39 -8 39 -33z m118 30 c18 -18 14 -46 -8
-53 -27 -8 -40 1 -40 29 0 36 24 48 48 24z m146 -10 c8 -14 7 -21 -6 -34 -30
-30 -75 9 -48 42 16 18 39 15 54 -8z m-377 -4 c8 -21 -13 -42 -28 -27 -13 13
-5 43 11 43 6 0 13 -7 17 -16z m-87 -14 c0 -11 -4 -20 -9 -20 -14 0 -23 18
-16 30 10 17 25 11 25 -10z m-30 -51 c0 -5 -4 -9 -10 -9 -5 0 -10 7 -10 16 0
8 5 12 10 9 6 -3 10 -10 10 -16z m78 -2 c2 -10 -3 -17 -11 -17 -16 0 -30 24
-19 34 10 10 27 1 30 -17z m97 -2 c0 -11 -7 -21 -16 -23 -18 -3 -33 23 -23 39
10 17 39 5 39 -16z m123 -3 c4 -28 -24 -40 -45 -19 -21 21 -9 49 19 45 15 -2
24 -11 26 -26z m131 14 c17 -20 2 -46 -25 -46 -26 0 -40 20 -30 45 7 19 40 20
55 1z m-389 -62 c0 -8 -4 -12 -10 -9 -5 3 -10 13 -10 21 0 8 5 12 10 9 6 -3
10 -13 10 -21z m90 -4 c0 -23 -25 -27 -33 -6 -7 16 1 26 20 26 7 0 13 -9 13
-20z m109 1 c8 -14 7 -22 -5 -32 -14 -11 -18 -10 -30 6 -10 13 -11 22 -3 32
16 18 26 16 38 -6z m131 -6 c10 -12 10 -18 0 -30 -7 -8 -18 -15 -25 -15 -19 0
-38 28 -31 45 7 19 40 19 56 0z m-360 -25 c0 -5 -2 -10 -4 -10 -3 0 -8 5 -11
10 -3 6 -1 10 4 10 6 0 11 -4 11 -10z m80 -21 c0 -18 -2 -19 -15 -9 -8 7 -15
16 -15 21 0 5 7 9 15 9 9 0 15 -9 15 -21z m100 -4 c10 -12 10 -19 2 -27 -15
-15 -48 14 -38 31 10 15 21 14 36 -4z m124 -18 c8 -13 8 -20 -3 -26 -18 -11
-38 -4 -45 16 -14 35 27 44 48 10z m-256 -15 c6 -18 -15 -14 -22 4 -4 10 -1
14 6 12 6 -2 14 -10 16 -16z m89 -17 c3 -9 3 -19 -1 -22 -8 -9 -37 18 -30 28
8 14 24 11 31 -6z m114 -21 c10 -13 10 -17 -1 -24 -17 -10 -40 5 -40 26 0 19
25 18 41 -2z m-153 -22 c6 -18 -15 -14 -22 4 -4 10 -1 14 6 12 6 -2 14 -10 16
-16z m107 -22 c3 -5 4 -14 0 -20 -8 -13 -35 -1 -35 16 0 16 26 19 35 4z m-45
-42 c0 -13 -23 -5 -28 10 -2 7 2 10 12 6 9 -3 16 -11 16 -16z"/>
<path d="M7322 7031 c-10 -6 -5 -10 15 -14 35 -7 111 2 119 14 7 11 -117 11
-134 0z"/>
<path d="M7185 7018 c-89 -17 -98 -48 -14 -48 54 0 113 24 106 43 -5 16 -31
17 -92 5z"/>
<path d="M7573 7014 c-40 -17 26 -54 97 -54 36 0 50 4 50 14 0 22 -117 53
-147 40z"/>
<path d="M7402 7000 c-52 -22 7 -63 82 -57 87 8 79 57 -11 63 -26 2 -59 -1
-71 -6z"/>
<path d="M7745 6980 c8 -13 92 -43 107 -38 7 3 -15 14 -50 26 -34 11 -60 17
-57 12z"/>
<path d="M7011 6959 c-14 -5 -32 -7 -40 -4 -8 3 -12 3 -8 -1 4 -4 -3 -18 -14
-30 -20 -21 -20 -24 -5 -30 47 -18 147 21 154 60 3 12 -4 16 -30 15 -18 0 -44
-5 -57 -10z"/>
<path d="M7222 6954 c-12 -8 -22 -22 -22 -30 0 -21 49 -37 95 -29 60 9 99 54
59 69 -30 12 -110 6 -132 -10z"/>
<path d="M6920 6940 c-8 -5 -10 -10 -5 -10 6 0 17 5 25 10 8 5 11 10 5 10 -5
0 -17 -5 -25 -10z"/>
<path d="M7654 6925 c-9 -22 13 -43 55 -56 52 -15 86 -9 86 16 0 40 -127 76
-141 40z"/>
<path d="M7489 6910 l-24 -20 23 -20 c33 -28 90 -36 121 -19 36 20 32 41 -9
61 -46 23 -82 23 -111 -2z"/>
<path d="M7822 6908 c8 -23 71 -58 104 -58 47 0 44 24 -6 50 -44 23 -104 27
-98 8z"/>
<path d="M7068 6895 c-15 -9 -32 -24 -38 -35 -8 -16 -6 -22 14 -35 47 -31 151
11 144 59 -2 17 -11 21 -48 23 -26 2 -57 -4 -72 -12z"/>
<path d="M6762 6862 c-66 -39 -62 -58 5 -24 37 20 85 62 67 62 -5 -1 -37 -18
-72 -38z"/>
<path d="M7322 6874 c-29 -20 -25 -54 8 -72 31 -16 97 -8 122 15 23 21 23 28
-2 53 -25 25 -95 27 -128 4z"/>
<path d="M6835 6864 c-67 -35 -90 -84 -39 -84 53 0 144 65 128 91 -8 14 -56
10 -89 -7z"/>
<path d="M7996 6859 c20 -22 85 -59 105 -59 19 0 -8 26 -56 55 -54 31 -75 33
-49 4z"/>
<path d="M7752 6827 c-28 -34 26 -77 98 -77 37 0 41 2 38 21 -7 46 -110 88
-136 56z"/>
<path d="M7173 6815 c-70 -30 -58 -95 18 -95 93 0 145 73 72 101 -32 12 -52
11 -90 -6z"/>
<path d="M7919 6819 c-19 -11 -2 -38 37 -60 42 -24 67 -30 84 -19 12 8 10 14
-13 38 -31 32 -88 54 -108 41z"/>
<path d="M6899 6797 c-26 -17 -34 -30 -34 -52 0 -27 4 -30 35 -33 56 -5 131
54 117 92 -10 25 -77 21 -118 -7z"/>
<path d="M7582 6808 c-19 -19 -14 -35 15 -58 21 -16 38 -20 77 -18 47 3 51 5
54 30 3 21 -3 30 -27 42 -36 19 -102 21 -119 4z"/>
<path d="M6610 6754 c-57 -48 -70 -64 -50 -64 28 0 101 55 121 93 17 31 -13
19 -71 -29z"/>
<path d="M7455 6783 c-25 -6 -55 -32 -55 -49 0 -7 12 -22 26 -33 52 -41 144
-20 144 32 0 30 -70 60 -115 50z"/>
<path d="M8070 6761 c20 -38 120 -82 120 -53 0 23 -75 72 -110 72 -17 0 -19
-3 -10 -19z"/>
<path d="M6679 6747 c-44 -29 -68 -72 -52 -88 16 -16 86 15 114 49 45 58 4 84
-62 39z"/>
<path d="M6999 6717 c-70 -47 -29 -119 54 -96 33 9 77 49 77 70 0 19 -42 49
-69 49 -15 0 -43 -10 -62 -23z"/>
<path d="M7268 6704 c-21 -11 -28 -22 -28 -44 0 -53 68 -77 129 -45 34 17 45
40 31 65 -22 41 -82 52 -132 24z"/>
<path d="M7845 6710 c-19 -30 26 -74 86 -84 48 -9 66 5 51 39 -19 40 -119 74
-137 45z"/>
<path d="M8210 6712 c0 -12 61 -68 90 -82 17 -9 10 3 -25 39 -47 49 -65 61
-65 43z"/>
<path d="M6758 6695 c-32 -18 -61 -67 -52 -89 19 -50 149 17 142 73 -2 21 -9
26 -33 28 -16 2 -42 -4 -57 -12z"/>
<path d="M7703 6700 c-58 -23 -1 -100 75 -100 74 0 80 58 9 91 -47 21 -53 21
-84 9z"/>
<path d="M8000 6692 c0 -24 25 -47 74 -67 45 -19 69 -8 50 23 -31 49 -124 82
-124 44z"/>
<path d="M6472 6621 c-42 -50 -51 -71 -31 -71 18 0 99 85 99 104 0 29 -26 17
-68 -33z"/>
<path d="M7565 6662 c-81 -17 -43 -112 45 -112 38 0 70 23 70 52 0 33 -70 69
-115 60z"/>
<path d="M8150 6656 c0 -21 71 -76 97 -76 33 0 29 13 -17 54 -41 37 -80 47
-80 22z"/>
<path d="M6529 6601 c-57 -57 -51 -108 10 -77 38 20 71 63 71 92 0 37 -36 30
-81 -15z"/>
<path d="M6853 6610 c-56 -34 -68 -79 -28 -106 20 -13 30 -14 59 -4 65 21 100
96 57 120 -29 15 -52 12 -88 -10z"/>
<path d="M7101 6604 c-36 -30 -39 -56 -11 -84 34 -34 127 -17 144 25 28 75
-65 116 -133 59z"/>
<path d="M8290 6597 c0 -16 74 -87 90 -87 14 0 12 9 -9 38 -26 36 -81 69 -81
49z"/>
<path d="M7393 6590 c-50 -20 -48 -85 4 -109 33 -15 58 -14 93 4 23 12 30 23
30 45 0 53 -66 84 -127 60z"/>
<path d="M7956 6587 c-15 -11 -17 -17 -7 -35 24 -45 124 -71 138 -37 7 20 -23
54 -64 71 -40 17 -45 17 -67 1z"/>
<path d="M8095 6580 c-11 -17 20 -56 58 -74 36 -17 67 -13 67 8 0 17 -40 53
-73 65 -35 14 -44 14 -52 1z"/>
<path d="M6604 6546 c-45 -45 -45 -89 -1 -94 39 -5 100 56 95 95 -5 44 -49 44
-94 -1z"/>
<path d="M7808 6569 c-56 -32 34 -113 106 -95 50 13 39 67 -19 92 -40 16 -63
17 -87 3z"/>
<path d="M8230 6539 c0 -17 59 -68 87 -75 41 -11 40 6 -4 47 -40 37 -83 52
-83 28z"/>
<path d="M7670 6527 c-34 -17 -38 -59 -9 -86 49 -45 151 -15 134 39 -13 41
-84 67 -125 47z"/>
<path d="M6377 6498 c-62 -83 -71 -111 -28 -89 29 16 76 100 63 113 -6 6 -18
-1 -35 -24z"/>
<path d="M6946 6498 c-36 -33 -43 -71 -17 -97 48 -48 151 -2 151 67 0 51 -88
71 -134 30z"/>
<path d="M7226 6489 c-19 -15 -26 -30 -26 -54 0 -40 17 -55 69 -62 35 -5 44
-2 71 25 36 37 38 55 5 87 -30 31 -82 33 -119 4z"/>
<path d="M6420 6462 c-26 -26 -40 -49 -40 -66 0 -35 28 -34 62 2 38 38 51 77
32 92 -11 10 -21 5 -54 -28z"/>
<path d="M6694 6466 c-51 -51 -43 -106 17 -106 32 0 77 34 90 68 7 18 5 31 -6
48 -23 35 -60 31 -101 -10z"/>
<path d="M8360 6481 c0 -12 90 -94 97 -88 8 9 -15 44 -48 71 -31 27 -49 33
-49 17z"/>
<path d="M7507 6450 c-54 -43 -17 -110 61 -110 73 0 105 55 58 99 -35 33 -85
38 -119 11z"/>
<path d="M8055 6460 c-26 -42 77 -108 120 -76 14 10 16 16 6 34 -21 40 -109
69 -126 42z"/>
<path d="M8194 6455 c-13 -33 75 -94 107 -74 17 10 4 35 -32 60 -38 27 -68 33
-75 14z"/>
<path d="M7920 6435 c-20 -24 -4 -61 34 -79 44 -21 59 -20 86 2 19 16 21 22
11 40 -24 44 -106 67 -131 37z"/>
<path d="M6485 6407 c-37 -37 -45 -76 -21 -96 36 -30 125 67 100 107 -18 29
-43 25 -79 -11z"/>
<path d="M8320 6419 c0 -15 55 -65 80 -72 35 -9 33 13 -5 48 -35 34 -75 46
-75 24z"/>
<path d="M6840 6393 c-30 -11 -70 -57 -70 -81 0 -43 18 -62 57 -62 49 0 93 41
93 86 0 42 -40 71 -80 57z"/>
<path d="M7071 6374 c-40 -34 -42 -74 -4 -104 36 -28 89 -21 121 15 28 33 28
66 -1 93 -32 30 -78 28 -116 -4z"/>
<path d="M7772 6388 c-46 -46 39 -122 106 -97 48 18 54 48 17 84 -18 19 -35
25 -68 25 -23 0 -48 -5 -55 -12z"/>
<path d="M7356 6359 c-39 -31 -37 -83 7 -110 40 -25 83 -19 115 17 29 33 28
50 -7 85 -35 35 -77 38 -115 8z"/>
<path d="M6277 6323 c-28 -55 -34 -79 -17 -68 17 11 51 85 48 103 -3 11 -14
-1 -31 -35z"/>
<path d="M8440 6361 c0 -9 76 -81 85 -81 13 0 2 22 -29 54 -32 34 -56 46 -56
27z"/>
<path d="M6593 6350 c-32 -13 -55 -54 -51 -92 2 -27 8 -34 30 -36 39 -5 67 14
84 55 13 31 13 38 -1 59 -16 26 -27 28 -62 14z"/>
<path d="M8164 6336 c-10 -25 3 -45 40 -62 37 -18 86 -13 86 9 0 41 -112 89
-126 53z"/>
<path d="M8287 6344 c-20 -20 49 -74 93 -74 32 0 22 30 -19 57 -34 23 -62 29
-74 17z"/>
<path d="M6322 6318 c-20 -22 -42 -68 -42 -89 0 -5 9 -9 19 -9 27 0 71 56 71
91 0 35 -18 38 -48 7z"/>
<path d="M7630 6310 c-45 -45 -1 -110 75 -110 36 0 78 44 70 73 -17 54 -105
77 -145 37z"/>
<path d="M8040 6312 c-20 -16 -21 -21 -11 -41 17 -31 73 -54 105 -42 32 13 39
26 26 51 -21 40 -88 58 -120 32z"/>
<path d="M8410 6299 c11 -19 66 -59 83 -59 19 0 4 32 -26 54 -43 33 -73 35
-57 5z"/>
<path d="M6386 6267 c-43 -43 -47 -107 -8 -107 31 0 65 45 66 87 1 47 -23 55
-58 20z"/>
<path d="M7904 6255 c-20 -20 -23 -29 -14 -44 26 -50 90 -65 131 -32 21 17 22
22 11 45 -11 24 -63 56 -92 56 -6 0 -22 -11 -36 -25z"/>
<path d="M6916 6239 c-31 -37 -33 -58 -5 -93 49 -62 163 1 143 79 -14 55 -97
63 -138 14z"/>
<path d="M7223 6260 c-29 -12 -45 -44 -41 -83 2 -25 10 -36 39 -50 46 -22 93
-8 115 35 18 35 12 61 -23 88 -27 21 -54 24 -90 10z"/>
<path d="M6689 6242 c-40 -20 -57 -60 -43 -99 7 -23 16 -29 45 -31 30 -3 41 2
63 28 56 67 10 140 -65 102z"/>
<path d="M8510 6257 c0 -2 14 -16 31 -33 24 -23 29 -25 23 -9 -10 29 -25 45
-40 45 -8 0 -14 -1 -14 -3z"/>
<path d="M7485 6215 c-14 -13 -25 -33 -25 -45 0 -36 44 -70 90 -70 49 0 80 27
80 69 0 64 -97 95 -145 46z"/>
<path d="M6456 6179 c-40 -47 -31 -109 15 -109 25 0 69 57 69 89 0 57 -44 68
-84 20z"/>
<path d="M7761 6174 c-27 -35 -27 -40 9 -76 26 -26 36 -30 66 -25 46 8 64 23
64 56 0 32 -8 44 -37 60 -38 20 -80 14 -102 -15z"/>
<path d="M6243 6171 c-9 -11 -20 -17 -23 -12 -3 5 -6 -13 -7 -40 -3 -59 17
-66 47 -16 34 55 20 111 -17 68z"/>
<path d="M6295 6116 c-25 -25 -36 -88 -16 -100 16 -10 41 5 56 35 19 36 19 63
0 79 -11 9 -19 7 -40 -14z"/>
<path d="M6814 6130 c-30 -12 -54 -49 -54 -82 0 -35 32 -68 66 -68 33 0 84 50
84 83 0 48 -52 85 -96 67z"/>
<path d="M7055 6115 c-45 -44 -25 -117 34 -130 61 -13 119 43 105 101 -14 56
-96 73 -139 29z"/>
<path d="M7345 6105 c-43 -43 -24 -106 38 -128 27 -10 85 18 98 47 35 75 -77
141 -136 81z"/>
<path d="M6555 6085 c-47 -46 -20 -138 34 -120 52 16 79 96 43 128 -26 24 -49
21 -77 -8z"/>
<path d="M7653 6100 c-12 -5 -29 -20 -38 -34 -14 -22 -15 -29 -3 -53 16 -34
61 -57 94 -49 34 9 64 41 64 69 0 46 -70 86 -117 67z"/>
<path d="M6361 6034 c-41 -52 -17 -119 34 -96 27 13 46 65 35 97 -11 31 -44
30 -69 -1z"/>
<path d="M6175 5996 c-4 -19 -5 -42 -2 -53 3 -14 8 -9 21 21 17 38 16 66 -3
66 -6 0 -13 -15 -16 -34z"/>
<path d="M6915 5975 c-47 -46 -23 -118 42 -131 27 -5 37 -1 63 24 56 56 30
132 -45 132 -25 0 -44 -8 -60 -25z"/>
<path d="M7202 5977 c-53 -57 -8 -145 68 -133 100 16 90 156 -11 156 -24 0
-43 -7 -57 -23z"/>
<path d="M6221 5964 c-38 -48 -22 -116 19 -79 27 24 36 73 17 92 -13 13 -17
11 -36 -13z"/>
<path d="M6665 5965 c-29 -28 -32 -70 -9 -103 35 -51 114 -10 114 60 0 65 -59
90 -105 43z"/>
<path d="M7490 5966 c-67 -73 35 -167 114 -105 18 15 26 30 26 53 0 70 -91
103 -140 52z"/>
<path d="M6450 5940 c-22 -22 -27 -79 -8 -98 45 -45 120 38 84 93 -20 30 -49
32 -76 5z"/>
<path d="M6275 5875 c-18 -41 -7 -75 25 -75 25 0 42 33 38 73 -2 25 -8 33 -26
35 -18 3 -26 -4 -37 -33z"/>
<path d="M6796 5839 c-57 -45 -15 -150 54 -134 61 14 82 96 34 134 -15 12 -34
21 -44 21 -10 0 -29 -9 -44 -21z"/>
<path d="M7062 5837 c-27 -29 -28 -77 -3 -108 14 -18 29 -24 61 -24 50 0 80
30 80 79 0 69 -91 103 -138 53z"/>
<path d="M7355 5835 c-64 -63 10 -162 92 -123 33 16 57 60 48 88 -19 60 -96
80 -140 35z"/>
<path d="M6577 5842 c-18 -4 -47 -50 -47 -77 0 -9 11 -27 25 -41 41 -41 95
-13 95 51 0 48 -31 77 -73 67z"/>
<path d="M6167 5833 c-10 -9 -9 -83 1 -83 18 0 32 26 32 57 0 31 -16 44 -33
26z"/>
<path d="M6367 5802 c-18 -20 -22 -68 -8 -90 13 -22 54 -10 71 21 13 24 13 30
0 54 -19 34 -41 39 -63 15z"/>
<path d="M6220 5760 c-6 -11 -10 -33 -8 -48 4 -38 39 -37 52 1 17 47 -22 88
-44 47z"/>
<path d="M6935 5695 c-16 -15 -25 -36 -25 -55 0 -38 39 -80 74 -80 70 0 104
92 51 138 -34 29 -70 28 -100 -3z"/>
<path d="M7229 5707 c-45 -34 -46 -92 -2 -127 54 -42 133 -7 133 60 0 61 -83
104 -131 67z"/>
<path d="M6460 5683 c-33 -42 -11 -103 36 -103 24 0 54 33 54 61 0 22 -38 69
-55 69 -7 0 -23 -12 -35 -27z"/>
<path d="M6677 5692 c-38 -42 -7 -122 47 -122 27 0 66 42 66 70 0 55 -78 91
-113 52z"/>
<path d="M6295 5674 c-35 -36 2 -116 39 -85 19 16 21 72 4 89 -16 16 -23 15
-43 -4z"/>
<path d="M6170 5623 c0 -41 13 -58 29 -39 17 20 10 60 -11 64 -14 3 -18 -3
-18 -25z"/>
<path d="M6382 5568 c-34 -34 8 -120 48 -98 25 14 34 44 19 72 -20 38 -45 48
-67 26z"/>
<path d="M6577 5562 c-47 -52 13 -144 69 -107 32 21 33 73 1 103 -28 27 -49
28 -70 4z"/>
<path d="M6833 5569 c-48 -17 -54 -93 -10 -124 62 -43 131 12 102 82 -15 34
-58 55 -92 42z"/>
<path d="M7095 5558 c-38 -34 -39 -82 -1 -115 55 -47 130 -17 130 51 0 71 -77
108 -129 64z"/>
<path d="M6230 5549 c-9 -16 -8 -26 5 -45 19 -29 31 -30 45 -5 13 25 -3 71
-24 71 -9 0 -20 -9 -26 -21z"/>
<path d="M6212 5439 c6 -16 13 -28 15 -25 8 8 -6 56 -17 56 -5 0 -5 -13 2 -31z"/>
<path d="M6315 5454 c-16 -16 -13 -46 7 -71 25 -31 64 1 54 42 -9 35 -40 50
-61 29z"/>
<path d="M6479 5426 c-8 -18 -7 -30 5 -53 27 -54 89 -46 89 11 0 58 -72 91
-94 42z"/>
<path d="M6707 5422 c-54 -59 36 -159 92 -103 29 29 26 57 -8 92 -34 33 -61
37 -84 11z"/>
<path d="M6961 5404 c-26 -33 -26 -41 -2 -81 34 -55 110 -53 131 3 29 75 -80
140 -129 78z"/>
<path d="M6255 5361 c-3 -5 0 -21 6 -35 15 -33 49 -35 49 -3 0 36 -39 63 -55
38z"/>
<path d="M6405 5320 c-13 -40 41 -94 71 -69 18 15 18 39 -2 67 -19 28 -60 29
-69 2z"/>
<path d="M6607 5303 c-13 -13 -7 -61 11 -81 37 -44 92 -31 92 22 0 42 -76 86
-103 59z"/>
<path d="M6869 5286 c-37 -18 -39 -77 -3 -105 49 -39 104 -21 104 33 0 53 -57
94 -101 72z"/>
<path d="M6351 5251 c-17 -11 -7 -42 19 -66 26 -23 45 -7 36 29 -7 29 -36 48
-55 37z"/>
<path d="M6527 5203 c-12 -11 -7 -48 9 -71 10 -14 25 -22 45 -22 25 0 29 4 29
28 0 44 -59 90 -83 65z"/>
<path d="M6752 5158 c-32 -32 11 -108 61 -108 50 0 64 54 22 95 -26 27 -64 32
-83 13z"/>
<path d="M6450 5100 c0 -24 34 -60 55 -60 24 0 29 27 11 55 -21 32 -66 35 -66
5z"/>
<path d="M6400 5064 c0 -4 11 -19 25 -36 25 -29 34 -23 15 11 -9 18 -40 36
-40 25z"/>
<path d="M6660 5055 c-27 -33 42 -111 79 -88 27 17 24 41 -7 73 -34 33 -53 37
-72 15z"/>
<path d="M6581 4980 c-18 -11 -5 -47 25 -66 28 -19 54 -12 54 14 0 32 -54 68
-79 52z"/>
<path d="M6540 4905 c13 -14 28 -25 33 -25 6 0 0 11 -13 25 -13 14 -28 25 -33
25 -6 0 0 -11 13 -25z"/>
<path d="M12534 3955 c-156 -34 -283 -139 -346 -286 -83 -192 -51 -380 92
-532 194 -208 510 -209 708 -3 191 199 188 493 -7 686 -75 74 -149 114 -249
136 -81 17 -118 17 -198 -1z"/>
<path d="M11820 2699 c-30 -5 -86 -24 -125 -43 -313 -149 -380 -555 -131 -794
202 -194 501 -189 694 12 132 137 174 322 112 500 -58 168 -212 297 -390 326
-74 11 -84 11 -160 -1z"/>
<path d="M10765 1679 c-195 -32 -343 -167 -400 -364 -23 -78 -16 -217 14 -297
47 -124 166 -242 289 -288 78 -30 208 -37 289 -16 251 64 404 290 372 548 -25
205 -202 385 -409 418 -73 11 -85 11 -155 -1z"/>
</g>
</svg>
