<?xml version="1.0" standalone="no"?>
<!DOCTYPE svg PUBLIC "-//W3C//DTD SVG 20010904//EN"
 "http://www.w3.org/TR/2001/REC-SVG-20010904/DTD/svg10.dtd">
<svg version="1.0" xmlns="http://www.w3.org/2000/svg"
 width="7611.000000pt" height="2363.000000pt" viewBox="0 0 7611.000000 2363.000000"
 preserveAspectRatio="xMidYMid meet">

<g transform="translate(0.000000,2363.000000) scale(0.100000,-0.100000)"
fill="#000000" stroke="none">
<path d="M14150 17845 c16 -19 90 -20 116 0 17 13 12 14 -55 15 -64 0 -72 -2
-61 -15z"/>
<path d="M14650 17850 c0 -6 27 -10 60 -10 33 0 60 4 60 10 0 6 -27 10 -60 10
-33 0 -60 -4 -60 -10z"/>
<path d="M13410 17803 c-39 -12 -63 -30 -76 -55 -50 -97 43 -210 148 -179 56
17 88 62 88 123 0 44 -4 54 -34 84 -27 27 -41 34 -72 33 -22 0 -46 -3 -54 -6z"/>
<path d="M13888 17792 c-31 -19 -58 -67 -58 -105 0 -31 38 -88 70 -104 51 -26
122 -8 154 39 9 12 16 43 16 68 0 25 -7 56 -16 68 -35 50 -115 67 -166 34z"/>
<path d="M14387 17780 c-34 -27 -48 -79 -36 -125 19 -67 99 -96 168 -61 65 34
69 138 7 188 -30 25 -106 24 -139 -2z"/>
<path d="M14924 17791 c-64 -28 -84 -116 -38 -170 64 -76 184 -29 184 71 0 71
-82 126 -146 99z"/>
<path d="M15399 17761 c-71 -72 -2 -192 96 -167 52 13 84 69 71 122 -19 74
-113 99 -167 45z"/>
<path d="M15917 17753 c-19 -5 -37 -41 -37 -74 0 -34 53 -79 93 -79 43 0 83
31 92 70 10 45 -8 67 -61 75 -26 3 -52 8 -58 10 -6 1 -19 1 -29 -2z"/>
<path d="M12900 17731 l-85 -17 1 -44 c1 -36 7 -49 37 -77 31 -27 44 -33 83
-33 88 0 138 54 132 141 -3 44 -3 44 -43 45 -22 1 -78 -6 -125 -15z"/>
<path d="M12451 17641 c-63 -15 -116 -31 -118 -37 -2 -5 15 -20 38 -33 47 -27
103 -23 149 9 25 18 58 76 49 84 -2 2 -55 -9 -118 -23z"/>
<path d="M16412 17648 c20 -31 61 -44 95 -32 40 14 30 27 -29 41 -78 18 -83
17 -66 -9z"/>
<path d="M12123 17561 c-49 -23 -73 -55 -80 -110 -6 -47 24 -109 67 -134 35
-21 102 -22 141 -2 94 49 91 203 -5 249 -44 21 -71 20 -123 -3z"/>
<path d="M12614 17551 c-45 -28 -71 -98 -55 -151 22 -75 106 -116 179 -88 51
19 82 68 82 131 0 44 -4 53 -39 88 -34 35 -44 39 -87 39 -31 0 -61 -7 -80 -19z"/>
<path d="M13144 17556 c-49 -22 -74 -61 -74 -118 0 -79 47 -128 125 -128 77 0
125 51 125 133 0 52 -27 93 -76 113 -41 17 -60 17 -100 0z"/>
<path d="M13639 17545 c-39 -21 -59 -59 -59 -109 0 -82 79 -141 155 -116 102
34 117 177 24 226 -35 18 -86 17 -120 -1z"/>
<path d="M14173 17548 c-47 -12 -83 -61 -83 -112 0 -48 19 -80 60 -101 53 -28
120 -11 154 37 20 28 21 90 2 126 -23 44 -78 65 -133 50z"/>
<path d="M14658 17535 c-34 -19 -58 -63 -58 -106 0 -22 10 -41 34 -65 28 -28
41 -34 78 -34 67 1 108 44 108 114 0 76 -94 129 -162 91z"/>
<path d="M15152 17515 c-36 -30 -47 -75 -28 -120 17 -41 42 -55 96 -55 33 0
48 6 71 29 89 90 -42 228 -139 146z"/>
<path d="M15655 17505 c-37 -36 -35 -97 4 -136 62 -61 161 -14 161 77 0 15
-12 38 -29 55 -39 39 -100 41 -136 4z"/>
<path d="M16165 17495 c-76 -75 34 -191 119 -124 34 27 37 98 6 129 -29 29
-94 27 -125 -5z"/>
<path d="M16710 17513 c-52 -19 -69 -94 -30 -133 46 -46 130 -9 130 57 0 51
-54 92 -100 76z"/>
<path d="M11680 17435 c-97 -30 -134 -46 -132 -56 18 -78 140 -114 211 -62 35
26 63 85 59 126 l-3 34 -135 -42z"/>
<path d="M17175 17451 c-9 -29 12 -70 40 -77 53 -13 95 17 80 58 -6 15 -66 38
-98 38 -9 0 -18 -8 -22 -19z"/>
<path d="M11346 17311 c-45 -30 -66 -70 -66 -126 0 -91 54 -145 147 -145 86 0
143 58 143 145 0 32 -7 60 -19 79 -30 45 -70 66 -126 66 -32 0 -60 -7 -79 -19z"/>
<path d="M11875 17316 c-17 -7 -43 -28 -58 -45 -38 -46 -39 -126 -1 -171 53
-62 118 -76 184 -39 49 28 70 66 70 127 0 40 -6 57 -27 83 -46 54 -108 71
-168 45z"/>
<path d="M12363 17301 c-86 -54 -82 -190 6 -236 17 -8 51 -15 77 -15 41 0 51
5 85 39 36 36 39 43 39 95 0 50 -4 60 -33 93 -29 31 -41 37 -88 40 -42 3 -61
0 -86 -16z"/>
<path d="M12881 17303 c-95 -47 -94 -191 2 -236 43 -21 67 -21 111 -3 103 43
104 199 0 242 -43 18 -71 17 -113 -3z"/>
<path d="M13362 17276 c-34 -32 -37 -38 -37 -91 0 -53 3 -59 37 -91 30 -27 46
-34 78 -34 79 0 130 49 130 125 0 76 -51 125 -130 125 -32 0 -48 -7 -78 -34z"/>
<path d="M13877 17280 c-57 -45 -57 -145 0 -189 29 -23 96 -28 136 -10 34 15
57 60 57 109 0 34 -6 48 -34 76 -30 30 -41 34 -84 34 -34 0 -57 -6 -75 -20z"/>
<path d="M14411 17287 c-40 -20 -66 -64 -65 -109 1 -35 8 -48 39 -76 34 -31
41 -34 83 -29 114 13 143 160 42 212 -35 18 -67 19 -99 2z"/>
<path d="M14889 17261 c-24 -24 -29 -38 -29 -76 0 -38 5 -52 29 -76 66 -65
181 -18 181 75 0 94 -115 143 -181 77z"/>
<path d="M15396 17249 c-36 -42 -35 -89 3 -131 25 -28 36 -33 72 -32 35 1 48
8 71 33 61 68 17 161 -75 161 -38 0 -49 -5 -71 -31z"/>
<path d="M15931 17266 c-13 -7 -30 -24 -37 -37 -51 -92 72 -183 146 -109 43
43 32 118 -21 145 -34 18 -57 18 -88 1z"/>
<path d="M16425 17245 c-75 -74 25 -190 109 -124 21 16 26 29 26 64 0 35 -5
48 -26 64 -36 28 -79 27 -109 -4z"/>
<path d="M16935 17235 c-14 -13 -25 -36 -25 -50 0 -33 41 -75 73 -75 38 0 77
36 77 71 0 37 -40 79 -75 79 -14 0 -37 -11 -50 -25z"/>
<path d="M17450 17230 c-11 -11 -20 -31 -20 -45 0 -29 32 -65 58 -65 34 0 62
29 62 65 0 57 -60 85 -100 45z"/>
<path d="M10923 17163 c-119 -50 -131 -57 -122 -74 13 -26 81 -59 120 -59 78
0 149 70 149 147 0 24 -3 43 -7 42 -5 0 -67 -26 -140 -56z"/>
<path d="M17950 17186 c0 -31 22 -48 57 -44 44 5 41 33 -7 52 -51 20 -50 20
-50 -8z"/>
<path d="M11090 17058 c-94 -63 -91 -200 6 -255 71 -41 156 -21 202 47 20 29
23 44 20 93 -4 51 -9 63 -41 94 -31 32 -43 37 -94 41 -49 3 -64 0 -93 -20z"/>
<path d="M11615 17062 c-98 -46 -112 -168 -29 -242 29 -25 43 -30 85 -30 92 0
149 53 149 140 0 111 -105 179 -205 132z"/>
<path d="M10620 17034 c-95 -45 -110 -58 -110 -103 0 -86 67 -151 154 -151 90
0 156 62 156 147 0 53 -11 81 -45 116 -36 35 -63 34 -155 -9z"/>
<path d="M12100 17044 c-44 -38 -63 -80 -57 -126 14 -102 111 -155 204 -111
93 44 99 189 10 243 -48 30 -117 27 -157 -6z"/>
<path d="M12631 17052 c-52 -26 -76 -65 -75 -120 1 -82 52 -132 134 -132 79 0
130 52 130 132 0 54 -27 100 -73 121 -45 22 -73 21 -116 -1z"/>
<path d="M13128 17044 c-61 -33 -79 -138 -32 -193 76 -91 224 -41 224 75 0 56
-22 99 -60 119 -37 19 -97 19 -132 -1z"/>
<path d="M13654 17046 c-48 -21 -74 -61 -74 -115 0 -53 18 -84 60 -106 55 -29
130 -12 164 37 24 34 21 109 -6 143 -21 26 -74 55 -100 55 -7 -1 -27 -7 -44
-14z"/>
<path d="M14148 17034 c-54 -29 -74 -109 -41 -164 43 -73 161 -72 199 2 19 36
18 98 -2 126 -34 48 -104 65 -156 36z"/>
<path d="M14634 17006 c-25 -25 -34 -43 -34 -67 0 -106 128 -157 194 -78 43
51 30 136 -25 165 -50 25 -97 18 -135 -20z"/>
<path d="M15157 17019 c-11 -6 -25 -26 -33 -44 -51 -122 125 -206 185 -88 35
68 -13 143 -91 143 -24 0 -51 -5 -61 -11z"/>
<path d="M15684 17020 c-56 -23 -73 -112 -29 -155 18 -19 35 -25 69 -25 37 0
48 5 70 31 67 79 -14 188 -110 149z"/>
<path d="M16169 16991 c-35 -35 -38 -77 -8 -115 27 -34 98 -37 129 -6 31 31
28 102 -6 129 -38 30 -80 27 -115 -8z"/>
<path d="M16680 16990 c-27 -27 -27 -90 0 -115 12 -11 36 -19 57 -19 44 0 73
32 73 79 0 63 -86 99 -130 55z"/>
<path d="M17192 16977 c-29 -31 -28 -62 4 -93 29 -30 67 -27 97 8 22 27 22 49
-4 82 -26 33 -68 34 -97 3z"/>
<path d="M17707 16972 c-20 -22 -22 -63 -5 -80 7 -7 26 -12 43 -12 38 0 55 16
55 50 0 52 -60 78 -93 42z"/>
<path d="M18226 16951 c-15 -16 -15 -22 -4 -40 17 -28 46 -27 60 4 8 19 8 28
-2 40 -17 20 -33 19 -54 -4z"/>
<path d="M10206 16833 c-78 -41 -86 -48 -66 -55 27 -10 98 7 124 30 21 20 50
72 39 72 -5 -1 -48 -22 -97 -47z"/>
<path d="M10343 16820 c-143 -73 -102 -282 57 -298 61 -6 119 25 149 78 77
137 -67 290 -206 220z"/>
<path d="M10844 16811 c-54 -33 -74 -67 -74 -129 0 -103 61 -159 163 -150 86
7 137 63 137 150 0 113 -130 188 -226 129z"/>
<path d="M11360 16812 c-80 -40 -108 -157 -54 -222 95 -113 264 -55 264 91 0
80 -67 149 -145 149 -16 0 -46 -8 -65 -18z"/>
<path d="M11853 16800 c-87 -52 -83 -198 6 -245 98 -50 211 16 211 123 0 85
-56 142 -140 142 -27 0 -58 -8 -77 -20z"/>
<path d="M12375 16800 c-50 -25 -75 -65 -75 -122 0 -54 27 -100 73 -121 96
-46 197 16 197 121 0 61 -24 100 -73 123 -53 24 -73 24 -122 -1z"/>
<path d="M12873 16790 c-41 -24 -63 -67 -63 -121 0 -35 6 -48 39 -80 34 -34
44 -39 85 -39 89 0 136 47 136 136 0 41 -5 51 -39 85 -33 33 -45 39 -82 39
-26 0 -57 -8 -76 -20z"/>
<path d="M13415 16803 c-120 -31 -127 -201 -9 -242 52 -18 88 -9 131 34 29 29
33 40 33 83 0 40 -6 57 -26 81 -21 25 -83 54 -104 50 -3 -1 -14 -4 -25 -6z"/>
<path d="M13900 16787 c-32 -16 -70 -73 -70 -104 0 -14 7 -40 16 -58 50 -107
224 -72 224 46 0 97 -88 158 -170 116z"/>
<path d="M14387 16770 c-34 -27 -48 -79 -36 -125 14 -49 51 -75 108 -75 88 1
137 82 99 165 -25 54 -121 74 -171 35z"/>
<path d="M14924 16780 c-36 -14 -64 -59 -64 -102 0 -32 7 -47 35 -75 32 -32
39 -35 78 -30 109 15 134 152 37 202 -32 17 -55 18 -86 5z"/>
<path d="M15421 16766 c-89 -50 -53 -186 49 -186 34 0 47 6 71 31 78 83 -20
210 -120 155z"/>
<path d="M15913 16746 c-22 -19 -28 -32 -28 -66 0 -85 95 -121 157 -60 26 27
30 36 25 68 -12 76 -96 107 -154 58z"/>
<path d="M16422 16737 c-51 -54 -13 -137 61 -137 49 0 77 28 77 78 0 74 -89
112 -138 59z"/>
<path d="M9908 16672 c-76 -42 -138 -80 -138 -84 0 -5 19 -21 42 -38 53 -38
131 -42 186 -8 38 23 72 85 72 133 0 36 -10 75 -19 75 -3 0 -68 -35 -143 -78z"/>
<path d="M16931 16724 c-24 -30 -26 -46 -10 -77 16 -30 28 -37 67 -37 41 0 72
30 72 70 0 67 -88 96 -129 44z"/>
<path d="M17447 16722 c-38 -42 -8 -102 49 -102 40 0 54 16 54 62 0 27 -5 40
-19 48 -30 15 -66 12 -84 -8z"/>
<path d="M17965 16714 c-20 -20 -16 -63 8 -78 13 -8 24 -7 45 4 36 21 40 49
11 71 -30 23 -43 23 -64 3z"/>
<path d="M18486 16691 c-17 -19 -17 -20 4 -31 18 -10 25 -9 38 4 13 12 13 18
2 30 -16 21 -23 20 -44 -3z"/>
<path d="M10090 16568 c-57 -30 -82 -65 -87 -125 -10 -101 57 -173 159 -173
65 0 111 26 140 80 24 45 20 129 -8 168 -24 32 -98 72 -134 72 -14 0 -46 -10
-70 -22z"/>
<path d="M10582 16559 c-18 -12 -42 -39 -52 -60 -72 -139 79 -284 214 -206
100 57 102 207 4 267 -45 27 -122 27 -166 -1z"/>
<path d="M11104 16560 c-140 -69 -91 -282 64 -282 92 0 152 58 152 148 0 64
-28 110 -83 134 -54 25 -82 25 -133 0z"/>
<path d="M11599 16547 c-94 -63 -88 -199 12 -249 65 -34 132 -18 183 42 33 40
36 119 7 164 -45 68 -136 87 -202 43z"/>
<path d="M12122 16553 c-85 -42 -107 -153 -44 -221 58 -62 152 -60 210 2 27
31 32 43 32 87 0 65 -23 104 -75 129 -50 24 -79 25 -123 3z"/>
<path d="M9605 16498 c-55 -34 -103 -66 -108 -72 -23 -33 24 -116 83 -146 49
-25 93 -25 146 -1 95 43 125 171 58 251 -37 43 -64 39 -179 -32z"/>
<path d="M12613 16540 c-62 -41 -78 -136 -32 -194 84 -106 239 -52 239 83 0
44 -5 56 -33 88 -29 31 -41 37 -88 40 -42 3 -61 -1 -86 -17z"/>
<path d="M13104 16516 c-30 -30 -34 -40 -34 -88 0 -82 45 -128 125 -128 78 0
125 51 125 136 0 39 -5 51 -34 80 -31 31 -40 34 -91 34 -51 0 -60 -3 -91 -34z"/>
<path d="M13638 16534 c-55 -29 -75 -117 -41 -175 18 -31 67 -59 103 -59 64 0
120 58 120 125 0 97 -97 156 -182 109z"/>
<path d="M14124 16506 c-29 -29 -34 -41 -34 -81 0 -40 5 -52 34 -81 29 -29 41
-34 81 -34 40 0 52 5 81 34 29 29 34 41 34 81 0 40 -5 52 -34 81 -29 29 -41
34 -81 34 -40 0 -52 -5 -81 -34z"/>
<path d="M14663 16525 c-53 -23 -78 -96 -52 -148 20 -39 51 -57 102 -57 42 0
53 4 78 31 53 57 35 145 -37 175 -41 17 -50 17 -91 -1z"/>
<path d="M15152 16505 c-58 -49 -46 -142 24 -171 47 -20 87 -11 119 28 80 94
-48 223 -143 143z"/>
<path d="M15656 16494 c-75 -76 21 -204 115 -154 30 17 52 68 45 106 -14 71
-108 100 -160 48z"/>
<path d="M16165 16485 c-37 -36 -30 -98 14 -132 25 -19 76 -15 105 8 35 28 37
95 3 127 -33 31 -90 30 -122 -3z"/>
<path d="M16677 16482 c-10 -10 -17 -35 -17 -55 0 -48 28 -77 75 -77 22 0 43
8 55 20 12 12 20 33 20 55 0 47 -29 75 -78 75 -25 0 -45 -7 -55 -18z"/>
<path d="M17186 16468 c-34 -48 -4 -108 54 -108 58 0 88 60 54 108 -11 16 -25
22 -54 22 -29 0 -43 -6 -54 -22z"/>
<path d="M17706 16464 c-21 -21 -20 -57 2 -77 37 -34 92 -11 92 38 0 13 -7 31
-16 39 -8 9 -26 16 -39 16 -13 0 -31 -7 -39 -16z"/>
<path d="M18226 16451 c-14 -15 -15 -24 -6 -40 23 -45 83 -12 62 34 -14 30
-33 32 -56 6z"/>
<path d="M9335 16326 c-64 -29 -112 -112 -100 -175 17 -91 76 -141 166 -141
92 0 158 58 166 147 6 60 -21 120 -68 154 -39 28 -121 35 -164 15z"/>
<path d="M9861 16330 c-18 -4 -50 -24 -69 -44 -33 -32 -36 -42 -40 -101 -4
-57 -1 -70 21 -104 46 -70 161 -92 226 -44 50 38 66 70 66 136 0 49 -5 69 -23
95 -39 54 -112 79 -181 62z"/>
<path d="M10334 16311 c-92 -56 -106 -176 -30 -250 78 -76 215 -50 256 49 17
41 8 121 -18 157 -43 61 -146 82 -208 44z"/>
<path d="M10867 16316 c-70 -26 -97 -66 -97 -144 0 -60 30 -109 80 -134 133
-67 269 71 204 208 -30 63 -117 96 -187 70z"/>
<path d="M11346 16302 c-45 -31 -66 -71 -66 -127 0 -89 58 -148 145 -148 88 0
145 59 145 151 0 47 -4 57 -39 94 -35 38 -43 42 -97 45 -46 3 -65 0 -88 -15z"/>
<path d="M11875 16306 c-17 -7 -43 -28 -58 -45 -54 -64 -28 -179 47 -215 103
-49 206 18 206 132 0 40 -5 57 -27 83 -46 54 -108 71 -168 45z"/>
<path d="M12363 16290 c-46 -28 -66 -72 -60 -134 4 -41 10 -55 41 -83 32 -29
42 -33 92 -33 52 0 59 3 95 39 35 34 39 44 39 87 0 86 -55 144 -137 144 -21 0
-52 -9 -70 -20z"/>
<path d="M12885 16291 c-71 -33 -97 -120 -55 -188 67 -110 240 -64 240 64 0
107 -91 168 -185 124z"/>
<path d="M13383 16280 c-108 -66 -65 -230 62 -230 45 0 87 21 109 54 19 30 21
101 2 134 -32 59 -114 79 -173 42z"/>
<path d="M13883 16270 c-22 -13 -36 -32 -44 -59 -27 -90 41 -161 138 -146 64
9 93 43 93 107 0 43 -4 54 -34 84 -28 28 -41 34 -77 34 -26 0 -57 -8 -76 -20z"/>
<path d="M14414 16280 c-39 -15 -64 -59 -64 -109 0 -72 15 -85 102 -89 72 -4
76 -3 96 23 27 34 29 100 6 134 -29 40 -94 60 -140 41z"/>
<path d="M14915 16268 c-59 -32 -75 -119 -31 -163 46 -46 136 -42 171 9 18 25
19 76 3 111 -21 47 -96 69 -143 43z"/>
<path d="M15399 16241 c-40 -40 -40 -89 0 -133 24 -27 36 -33 71 -33 35 0 47
6 71 33 40 44 40 93 0 133 -23 23 -38 29 -71 29 -33 0 -48 -6 -71 -29z"/>
<path d="M15944 16260 c-28 -11 -64 -58 -64 -82 0 -79 101 -127 155 -74 50 50
40 122 -20 150 -37 18 -41 18 -71 6z"/>
<path d="M16445 16249 c-52 -30 -62 -93 -20 -134 50 -51 135 -17 135 55 0 21
-8 47 -17 59 -22 25 -71 35 -98 20z"/>
<path d="M16935 16225 c-14 -13 -25 -36 -25 -50 0 -35 42 -75 78 -75 36 0 72
37 72 74 0 34 -41 76 -75 76 -14 0 -37 -11 -50 -25z"/>
<path d="M17470 16233 c-42 -15 -53 -70 -20 -103 41 -41 100 -13 100 47 0 41
-41 70 -80 56z"/>
<path d="M17962 16208 c-24 -24 -4 -88 27 -88 15 0 61 41 61 54 0 35 -63 59
-88 34z"/>
<path d="M18487 16204 c-12 -12 -8 -41 7 -53 19 -16 44 14 30 37 -12 19 -27
25 -37 16z"/>
<path d="M8962 16068 c-45 -33 -81 -62 -80 -64 7 -7 90 15 113 30 24 16 65 71
65 89 0 14 -16 5 -98 -55z"/>
<path d="M9065 16067 c-114 -65 -112 -236 5 -294 56 -29 105 -29 160 0 51 27
90 90 90 147 0 128 -143 210 -255 147z"/>
<path d="M9609 16081 c-103 -33 -150 -149 -97 -243 66 -116 230 -109 294 14
33 64 3 168 -61 208 -37 23 -100 32 -136 21z"/>
<path d="M10079 16057 c-135 -91 -88 -282 73 -295 44 -3 59 0 88 20 79 53 102
141 59 218 -43 76 -150 104 -220 57z"/>
<path d="M10614 16070 c-18 -6 -46 -26 -62 -45 -56 -63 -55 -154 2 -211 101
-101 266 -34 266 109 0 102 -106 177 -206 147z"/>
<path d="M11089 16047 c-96 -64 -87 -212 15 -261 103 -49 216 21 216 134 0
119 -134 192 -231 127z"/>
<path d="M11639 16061 c-50 -16 -71 -33 -90 -74 -23 -52 -24 -75 -3 -127 21
-51 66 -80 128 -80 89 0 146 54 146 140 0 98 -91 169 -181 141z"/>
<path d="M12124 16050 c-27 -11 -72 -65 -80 -96 -9 -35 3 -88 27 -118 61 -77
180 -74 229 7 41 67 16 168 -49 202 -32 16 -93 19 -127 5z"/>
<path d="M12643 16049 c-39 -11 -80 -59 -88 -103 -7 -33 16 -106 32 -106 4 0
58 13 118 28 109 28 110 28 113 59 5 48 -23 92 -71 114 -46 21 -57 21 -104 8z"/>
<path d="M13129 16034 c-26 -17 -65 -71 -57 -80 5 -4 218 32 224 39 2 2 -7 14
-21 27 -32 30 -109 38 -146 14z"/>
<path d="M15686 16001 c-5 -8 47 -21 88 -21 15 0 16 3 6 15 -13 16 -85 21 -94
6z"/>
<path d="M16160 15973 c-37 -47 -25 -64 59 -85 45 -11 79 -14 84 -9 5 5 9 26
10 46 1 49 -29 75 -88 75 -35 0 -48 -5 -65 -27z"/>
<path d="M16686 15979 c-20 -16 -26 -29 -26 -59 0 -71 76 -104 125 -55 50 49
17 135 -50 135 -12 0 -34 -9 -49 -21z"/>
<path d="M17192 15967 c-12 -13 -22 -33 -22 -46 0 -28 42 -71 70 -71 12 0 32
11 45 25 14 13 25 34 25 45 0 28 -43 70 -73 70 -13 0 -33 -10 -45 -23z"/>
<path d="M17712 15964 c-32 -22 -30 -69 4 -91 24 -15 29 -15 53 -2 36 20 41
71 9 93 -28 20 -38 20 -66 0z"/>
<path d="M18225 15944 c-14 -14 -14 -19 -2 -37 19 -29 30 -31 58 -7 l24 20
-24 20 c-28 24 -35 25 -56 4z"/>
<path d="M8687 15859 c-126 -99 -130 -109 -44 -109 87 0 154 53 172 137 3 18
2 39 -2 48 -8 13 -30 0 -126 -76z"/>
<path d="M8830 15829 c-95 -38 -135 -171 -77 -257 32 -49 80 -72 150 -72 71 0
127 38 152 104 54 140 -86 280 -225 225z"/>
<path d="M9345 15825 c-109 -39 -147 -177 -71 -263 79 -90 215 -79 273 23 54
96 4 214 -105 245 -46 12 -48 12 -97 -5z"/>
<path d="M9830 15812 c-54 -30 -80 -75 -80 -141 0 -101 59 -161 159 -161 162
0 220 195 88 294 -38 28 -122 33 -167 8z"/>
<path d="M10363 15819 c-44 -13 -90 -62 -103 -110 -20 -72 20 -157 86 -185
110 -46 224 29 224 147 0 60 -31 107 -90 137 -47 24 -67 25 -117 11z"/>
<path d="M10845 15801 c-53 -32 -68 -58 -73 -120 -7 -103 45 -161 146 -161 66
0 103 20 131 70 42 75 19 167 -51 210 -42 26 -113 26 -153 1z"/>
<path d="M11385 15813 c-32 -8 -74 -42 -90 -73 -8 -16 -15 -51 -15 -79 0 -39
6 -56 26 -81 66 -78 163 -81 233 -6 35 37 41 127 11 174 -31 51 -105 80 -165
65z"/>
<path d="M11858 15795 c-39 -22 -68 -75 -68 -126 0 -78 3 -79 142 -31 68 24
127 47 133 53 16 16 -26 82 -65 101 -42 22 -105 23 -142 3z"/>
<path d="M8450 15667 c-176 -148 -166 -138 -145 -153 40 -29 108 -29 177 1 17
7 17 5 3 -29 -19 -45 -19 -94 0 -140 18 -41 19 -41 -28 -21 -46 19 -88 19
-133 0 -34 -14 -36 -14 -29 3 5 9 10 45 13 79 3 48 0 69 -12 89 l-17 25 -72
-63 c-137 -121 -560 -544 -707 -708 -151 -168 -355 -410 -411 -487 l-30 -43
70 0 71 0 0 -70 0 -70 -70 0 -70 0 0 65 c0 36 -3 65 -7 65 -5 -1 -50 -57 -101
-127 l-94 -125 41 4 41 4 0 -68 0 -68 -64 0 c-59 0 -65 2 -68 22 -3 19 -10 13
-52 -42 -64 -85 -79 -123 -74 -182 l5 -48 -44 0 -43 0 -54 -82 c-124 -193
-386 -651 -432 -754 l-24 -55 45 6 45 7 0 -66 0 -66 -65 0 c-45 0 -65 4 -65
13 0 31 -105 -171 -115 -223 -4 -19 -18 -49 -30 -66 -13 -16 -72 -147 -131
-290 l-108 -259 -1 -90 0 -90 -30 -5 c-29 -5 -31 -9 -93 -195 -107 -325 -132
-419 -132 -496 0 -60 -2 -69 -18 -69 -15 0 -25 -28 -60 -177 -23 -98 -42 -184
-42 -190 0 -9 19 -13 60 -13 l60 0 0 -60 0 -60 -64 0 -64 0 5 40 c3 22 2 40
-3 40 -19 0 -112 -552 -121 -720 -3 -63 -11 -124 -17 -135 -11 -22 -20 -98
-32 -266 l-7 -107 27 5 26 5 0 -67 0 -67 -30 4 c-37 6 -37 5 -45 -219 l-6
-163 41 0 41 0 -3 -62 -3 -63 -37 3 -38 4 0 -184 c0 -101 4 -189 9 -197 6 -9
18 -11 40 -6 l31 7 0 -66 0 -66 -37 0 -36 0 7 -112 c15 -262 16 -268 44 -268
24 0 24 -1 18 -67 -11 -113 -10 -119 33 -209 81 -169 198 -299 347 -385 134
-77 177 -92 287 -97 74 -3 97 -8 97 -18 0 -17 27 -18 174 -4 126 12 226 42
336 101 115 62 142 96 120 153 -9 25 -9 25 39 19 36 -4 51 -1 64 12 36 36 147
204 147 223 0 11 11 39 25 64 30 53 52 146 61 256 l7 82 -47 0 -46 0 0 60 0
60 38 0 38 0 -3 58 c-1 31 -5 119 -9 194 l-6 137 -29 -6 -29 -5 0 66 0 66 30
0 30 0 0 190 0 190 -30 0 -31 0 3 63 3 62 33 -3 c17 -2 32 -2 32 0 0 2 7 77
15 168 22 241 24 222 -32 218 l-48 -3 -3 63 -3 62 60 0 c60 0 60 0 65 33 68
435 117 687 187 945 21 79 39 148 39 153 0 5 -23 9 -50 9 l-51 0 3 63 3 62 62
3 c36 2 66 8 73 17 8 10 188 504 216 595 4 12 -5 14 -50 12 l-56 -4 0 71 0 71
75 0 75 0 -5 -27 c-3 -16 21 24 52 87 43 87 57 126 56 158 0 32 4 42 16 42 11
0 67 98 171 296 85 162 157 300 159 306 2 7 -11 8 -43 4 l-46 -7 0 80 0 81 81
0 81 0 -7 -32 -7 -33 27 38 c15 21 38 64 52 94 22 48 25 65 21 129 -5 68 -4
72 13 64 10 -6 34 -10 53 -10 30 0 40 6 68 45 18 25 51 69 73 98 31 40 39 60
39 90 -1 33 1 37 25 37 21 0 40 18 96 91 39 50 80 102 93 116 12 14 22 34 22
44 0 10 8 20 18 23 10 3 63 61 119 128 56 68 156 182 222 253 119 129 120 130
100 147 -29 24 -96 41 -134 34 -116 -22 -177 -160 -116 -259 l22 -37 -53 25
c-61 29 -81 30 -135 11 l-39 -14 15 59 c15 55 14 61 -6 108 l-21 51 31 -17
c18 -9 55 -17 83 -17 136 -2 217 151 144 270 -40 64 -153 94 -222 58 -29 -15
-31 -15 -23 2 28 70 28 118 0 186 -7 17 -5 17 29 3 69 -29 138 -16 193 37 84
82 61 221 -47 276 -52 26 -87 28 -137 7 -20 -8 -37 -14 -39 -12 -2 1 3 21 11
42 19 54 18 82 -5 133 l-19 42 32 -16 c122 -64 272 40 253 174 -14 100 -85
158 -185 149 -31 -2 -64 -8 -73 -12 -16 -6 -16 -4 -1 40 15 47 12 91 -12 147
-7 17 -5 17 29 3 74 -31 150 -12 205 51 72 81 43 210 -59 262 -52 26 -96 28
-146 7 -34 -14 -36 -14 -29 3 22 49 27 108 14 138 l-14 32 -95 -81z m-297
-424 c29 2 59 8 69 11 15 7 15 4 1 -44 -12 -40 -13 -61 -5 -93 6 -23 10 -43 8
-44 -1 -2 -17 2 -35 8 -29 10 -88 7 -124 -6 -12 -5 -13 6 -9 68 3 45 0 82 -7
95 -11 20 -10 21 20 10 16 -6 54 -8 82 -5z m331 -258 c-18 -44 -18 -106 0
-150 l15 -35 -31 16 c-32 17 -122 16 -162 -1 -16 -7 -17 -6 -6 14 14 27 18
105 7 144 -7 26 -6 28 14 22 38 -13 115 -8 145 8 16 9 30 16 31 17 1 0 -5 -16
-13 -35z m-573 -1 c20 3 44 9 53 12 14 5 15 2 6 -21 -13 -33 -13 -96 0 -129
11 -30 12 -29 -43 -15 -27 6 -57 7 -82 1 l-40 -9 0 87 0 87 34 -9 c19 -6 51
-7 72 -4z m320 -252 c-14 -27 -14 -127 0 -154 10 -18 9 -19 -13 -11 -12 4 -48
8 -78 8 -30 0 -66 -4 -78 -8 -22 -8 -23 -7 -12 14 8 14 11 48 8 94 l-5 71 49
-10 c38 -8 58 -7 91 5 49 18 52 17 38 -9z m-521 -72 l0 -80 -75 0 -75 0 0 80
0 80 75 0 75 0 0 -80z m774 -185 c-18 -44 -18 -96 1 -141 14 -34 14 -36 -3
-29 -56 24 -100 27 -147 12 -44 -15 -46 -15 -40 1 22 51 26 100 11 141 -13 39
-13 42 2 35 38 -16 119 -16 148 -1 42 23 45 21 28 -18z m-515 -14 c-11 -32 -8
-99 6 -133 6 -16 4 -17 -25 -7 -17 7 -57 9 -88 6 l-57 -5 0 82 0 81 66 -3 c37
-2 75 1 85 6 25 14 26 11 13 -27z m-511 -58 l3 -73 -76 0 -75 0 0 75 0 76 73
-3 72 -3 3 -72z m771 -183 c-11 -31 -8 -123 5 -151 6 -15 2 -15 -45 -3 -46 12
-67 12 -119 -2 -12 -3 -15 11 -15 85 l0 88 66 -5 c39 -3 74 0 85 6 30 18 34
14 23 -18z m-523 -37 c-4 -27 -2 -63 3 -80 l10 -33 -80 0 -79 0 0 80 0 80 76
0 76 0 -6 -47z m778 -208 c-18 -44 -18 -106 0 -149 l14 -34 -36 15 c-37 15
-117 14 -156 -2 -16 -7 -17 -6 -6 15 14 26 18 103 7 143 -7 26 -6 27 20 20 56
-16 106 -8 170 26 1 1 -5 -15 -13 -34z m-581 -2 c23 2 50 8 59 12 15 6 16 3 6
-31 -10 -38 -7 -103 7 -138 7 -16 6 -17 -15 -6 -14 7 -49 11 -89 8 l-66 -3 0
86 0 86 28 -10 c16 -5 47 -7 70 -4z m-445 -75 l-3 -73 -70 0 -70 0 -3 73 -3
72 76 0 76 0 -3 -72z m772 -178 c-12 -23 -10 -133 4 -162 8 -17 6 -17 -28 -3
-40 17 -93 19 -128 6 l-23 -9 0 93 0 93 23 -9 c33 -13 92 -10 127 5 36 16 40
14 25 -14z m-520 -75 l0 -75 -75 0 -75 0 0 75 0 75 75 0 75 0 0 -75z m-510 0
l0 -65 -70 0 -70 0 0 65 0 65 70 0 70 0 0 -65z m1283 -182 c-15 -38 -14 -117
2 -157 7 -16 5 -17 -11 -8 -37 19 -90 22 -136 8 l-47 -14 10 25 c13 34 11 130
-2 155 -10 19 -9 20 7 13 39 -16 119 -17 154 -2 19 9 36 16 37 16 1 1 -5 -16
-14 -36z m-514 -12 c-11 -32 -8 -99 6 -135 7 -16 5 -17 -16 -10 -13 5 -52 9
-87 9 l-62 0 0 82 0 82 32 -10 c33 -9 90 -4 118 12 21 11 22 7 9 -30z m-511
-58 l3 -73 -74 0 -74 0 0 75 -1 76 72 -3 71 -3 3 -72z m-518 2 l0 -65 -65 0
-65 0 0 58 c0 32 3 62 7 65 3 4 33 7 65 7 l58 0 0 -65z m1284 -202 c-13 -43
-12 -72 2 -123 3 -13 -11 -15 -85 -15 l-89 0 6 30 c8 38 8 61 -1 105 l-7 36
69 -4 c39 -2 77 1 87 7 31 17 33 13 18 -36z m-514 -53 l0 -80 -75 0 -75 0 0
80 0 80 75 0 75 0 0 -80z m-510 0 l0 -70 -70 0 -70 0 0 70 0 70 70 0 70 0 0
-70z m-520 0 l0 -60 -60 0 -60 0 0 60 0 60 60 0 60 0 0 -60z m1293 -182 c-10
-30 -10 -117 0 -146 8 -22 7 -23 -13 -12 -14 7 -49 11 -89 8 l-66 -3 0 81 0
82 55 -5 c30 -3 66 0 80 5 37 16 42 14 33 -10z m-515 -70 l-3 -73 -71 -3 -71
-3 0 76 0 75 74 0 74 0 -3 -72z m-1028 -3 l0 -66 -62 3 -63 3 -3 49 c-5 72 -1
76 68 76 l60 0 0 -65z m510 0 l0 -65 -65 0 -65 0 0 65 0 65 65 0 65 0 0 -65z
m770 -255 l0 -80 -75 0 -75 0 0 80 0 80 75 0 75 0 0 -80z m-1030 5 l0 -65 -60
0 -60 0 0 65 0 65 60 0 60 0 0 -65z m520 0 l0 -65 -70 0 -70 0 0 65 0 65 70 0
70 0 0 -65z m258 -252 l3 -73 -76 0 -75 0 0 68 c0 38 3 72 7 76 4 4 37 6 73 4
l65 -3 3 -72z m-518 2 l0 -65 -65 0 -65 0 0 58 c0 32 3 62 7 65 3 4 33 7 65 7
l58 0 0 -65z m-510 -5 l0 -60 -65 0 -65 0 0 60 0 60 65 0 65 0 0 -60z m1274
-219 c-4 -28 -2 -63 4 -80 11 -31 10 -31 -22 -31 -18 0 -54 3 -80 6 l-46 7 0
73 0 74 75 0 76 0 -7 -49z m-504 -31 l0 -70 -54 0 c-82 0 -86 3 -86 69 0 32 3
61 7 64 3 4 35 7 70 7 l63 0 0 -70z m-1020 -6 l0 -67 -46 7 c-26 3 -55 6 -65
6 -16 0 -19 8 -19 60 l0 60 65 0 65 0 0 -66z m510 7 c0 -33 -4 -62 -9 -66 -5
-3 -35 -2 -65 1 l-56 7 0 58 0 59 65 0 65 0 0 -59z m729 -187 l32 -7 -3 -66
-3 -66 -72 -3 -73 -3 0 76 0 75 44 0 c24 0 58 -3 75 -6z m-1504 -69 l0 -60
-62 -3 -63 -3 0 66 0 66 63 -3 62 -3 0 -60z m505 0 l0 -65 -60 0 -60 0 0 65 0
65 60 0 60 0 0 -65z m510 0 l0 -65 -65 0 -65 0 0 65 0 65 65 0 65 0 0 -65z
m-762 -252 l3 -63 -66 0 -65 0 0 58 c0 32 3 62 7 66 4 4 32 6 63 4 l55 -3 3
-62z m510 0 l3 -63 -66 0 -65 0 0 65 0 66 63 -3 62 -3 3 -62z m510 0 l-3 -68
-65 0 -65 0 -3 68 -3 67 71 0 71 0 -3 -67z m-1268 -253 l0 -60 -65 0 -65 0 0
60 0 60 65 0 65 0 0 -60z m500 0 l0 -60 -60 0 -60 0 0 60 0 60 60 0 60 0 0
-60z m510 -5 l0 -66 -62 3 -63 3 -3 63 -3 62 66 0 65 0 0 -65z m-1270 -250 l0
-65 -60 0 -60 0 0 65 0 65 60 0 60 0 0 -65z m508 3 l-3 -63 -60 0 -60 0 -3 49
c-5 72 -1 76 68 76 l61 0 -3 -62z m507 -3 l0 -60 -62 -3 -63 -3 0 66 0 66 63
-3 62 -3 0 -60z m515 0 l0 -65 -70 0 -70 0 0 65 0 65 70 0 70 0 0 -65z m-1275
-250 l0 -60 -62 -3 -63 -3 0 59 c0 32 3 62 7 66 4 4 32 6 63 4 l55 -3 0 -60z
m505 0 l0 -65 -60 0 -60 0 0 65 0 65 60 0 60 0 0 -65z m510 0 l0 -65 -65 0
-65 0 0 65 0 65 65 0 65 0 0 -65z m-1270 -255 l0 -60 -60 0 -60 0 0 60 0 60
60 0 60 0 0 -60z m510 0 l0 -60 -65 0 -65 0 0 60 0 60 65 0 65 0 0 -60z m510
0 l0 -60 -65 0 -65 0 0 60 0 60 65 0 65 0 0 -60z m-760 -250 l0 -60 -65 0 -65
0 0 60 0 60 65 0 65 0 0 -60z m500 0 l0 -60 -60 0 -60 0 0 60 0 60 60 0 60 0
0 -60z m510 -5 l0 -66 -62 3 -63 3 -3 63 -3 62 66 0 65 0 0 -65z m-1270 -250
l0 -65 -60 0 -60 0 0 65 0 65 60 0 60 0 0 -65z m510 0 l0 -66 -62 3 -63 3 -3
49 c-5 72 -1 76 68 76 l60 0 0 -65z m505 0 l0 -60 -62 -3 -63 -3 0 66 0 66 63
-3 62 -3 0 -60z m-1265 -250 l0 -65 -60 0 -60 0 0 65 0 65 60 0 60 0 0 -65z
m508 -2 l3 -63 -66 0 -65 0 0 58 c0 32 3 62 7 66 4 4 32 6 63 4 l55 -3 3 -62z
m502 2 l0 -65 -60 0 -60 0 0 65 0 65 60 0 60 0 0 -65z m508 -2 l3 -63 -66 0
-65 0 0 58 c0 32 3 62 7 66 4 4 32 6 63 4 l55 -3 3 -62z m-1268 -253 l0 -60
-60 0 -60 0 0 60 0 60 60 0 60 0 0 -60z m510 0 l0 -60 -65 0 -65 0 0 60 0 60
65 0 65 0 0 -60z m510 0 l0 -60 -65 0 -65 0 0 60 0 60 65 0 65 0 0 -60z
m-1270 -255 l0 -65 -60 0 -60 0 0 65 0 65 60 0 60 0 0 -65z m508 3 l-3 -63
-60 0 -60 0 -3 63 -3 62 66 0 66 0 -3 -62z m502 -3 l0 -65 -60 0 -60 0 0 65 0
65 60 0 60 0 0 -65z m-760 -250 l0 -65 -60 0 -60 0 0 65 0 65 60 0 60 0 0 -65z
m508 -3 l3 -63 -63 3 -63 3 -3 49 c-5 73 -1 77 65 74 l58 -3 3 -63z m507 3 l0
-60 -62 -3 -63 -3 0 66 0 66 63 -3 62 -3 0 -60z m-1265 -255 l0 -60 -60 0 -60
0 0 60 0 60 60 0 60 0 0 -60z m510 0 l0 -60 -65 0 -65 0 0 60 0 60 65 0 65 0
0 -60z m500 0 l0 -60 -60 0 -60 0 0 60 0 60 60 0 60 0 0 -60z m-760 -250 l0
-60 -60 0 -60 0 0 60 0 60 60 0 60 0 0 -60z m510 0 l0 -60 -65 0 -65 0 0 60 0
60 65 0 65 0 0 -60z m510 0 l0 -60 -65 0 -65 0 0 60 0 60 65 0 65 0 0 -60z
m-1270 -255 l0 -65 -60 0 -60 0 0 65 0 65 60 0 60 0 0 -65z m505 0 l0 -60 -60
0 -60 0 -3 63 -3 63 63 -3 63 -3 0 -60z m505 0 l0 -65 -60 0 -60 0 0 65 0 65
60 0 60 0 0 -65z m-760 -250 l0 -65 -60 0 -60 0 0 65 0 65 60 0 60 0 0 -65z
m508 -2 l3 -63 -66 0 -65 0 0 58 c0 32 3 62 7 66 4 4 32 6 63 4 l55 -3 3 -62z
m510 0 l3 -63 -66 0 -65 0 0 65 0 66 63 -3 62 -3 3 -62z m-1268 -253 l0 -60
-60 0 -60 0 0 60 0 60 60 0 60 0 0 -60z m510 0 l0 -60 -65 0 -65 0 0 60 0 60
65 0 65 0 0 -60z m500 0 l0 -60 -60 0 -60 0 0 60 0 60 60 0 60 0 0 -60z m-760
-255 l0 -65 -60 0 -60 0 0 65 0 65 60 0 60 0 0 -65z m508 3 l-3 -63 -60 0 -60
0 -3 63 -3 62 66 0 66 0 -3 -62z m510 0 l-3 -63 -62 -3 -63 -3 0 66 0 65 65 0
66 0 -3 -62z m-1268 -253 l0 -65 -60 0 -60 0 0 65 0 65 60 0 60 0 0 -65z m505
0 l0 -60 -62 -3 -63 -3 0 59 c0 32 3 62 7 66 4 4 32 6 63 4 l55 -3 0 -60z
m505 0 l0 -65 -60 0 -60 0 0 65 0 65 60 0 60 0 0 -65z m-760 -255 l0 -60 -60
0 -60 0 0 60 0 60 60 0 60 0 0 -60z m510 0 l0 -60 -65 0 -65 0 0 60 0 60 65 0
65 0 0 -60z"/>
<path d="M16939 15719 c-12 -12 -17 -24 -12 -28 13 -12 124 -43 130 -37 9 8
-6 53 -23 70 -22 23 -70 20 -95 -5z"/>
<path d="M17447 15712 c-21 -23 -22 -66 -1 -86 18 -19 75 -21 92 -4 17 17 15
74 -4 92 -21 22 -67 20 -87 -2z"/>
<path d="M17965 15704 c-20 -20 -16 -63 8 -78 13 -8 24 -7 45 4 35 20 39 46
10 70 -28 24 -42 25 -63 4z"/>
<path d="M18486 15685 c-12 -13 -14 -21 -5 -37 l11 -20 21 21 c19 19 20 22 6
37 -15 14 -18 14 -33 -1z"/>
<path d="M9060 15558 c-58 -40 -75 -72 -75 -143 0 -71 17 -103 75 -142 40 -27
125 -31 170 -8 78 41 110 144 68 225 -32 63 -77 90 -148 90 -43 0 -65 -6 -90
-22z"/>
<path d="M9585 15566 c-151 -68 -112 -298 52 -313 168 -17 250 192 116 294
-41 32 -121 41 -168 19z"/>
<path d="M10105 15565 c-98 -35 -136 -159 -75 -245 62 -87 198 -85 264 3 31
42 30 140 -2 185 -42 58 -119 82 -187 57z"/>
<path d="M10590 15551 c-137 -72 -81 -291 73 -291 162 0 219 216 77 291 -44
24 -106 24 -150 0z"/>
<path d="M11124 15559 c-40 -11 -90 -67 -103 -116 -9 -33 -7 -43 18 -88 38
-67 59 -69 184 -10 97 45 97 45 97 81 0 51 -35 103 -84 125 -45 20 -65 22
-112 8z"/>
<path d="M11625 15551 c-22 -9 -63 -51 -49 -50 5 0 36 13 69 29 53 25 56 28
30 29 -16 0 -39 -4 -50 -8z"/>
<path d="M17706 15449 c-14 -11 -26 -24 -26 -29 0 -7 84 -30 110 -30 19 0 10
49 -12 64 -29 21 -40 20 -72 -5z"/>
<path d="M8811 15313 c-122 -60 -108 -263 22 -312 139 -53 276 85 222 225 -25
67 -81 104 -154 104 -31 0 -71 -8 -90 -17z"/>
<path d="M9335 15316 c-43 -18 -91 -77 -99 -120 -22 -118 91 -227 204 -196
110 30 162 148 107 245 -41 72 -136 104 -212 71z"/>
<path d="M9822 15300 c-49 -30 -72 -75 -72 -141 0 -204 298 -215 317 -12 6 62
-22 122 -70 152 -46 28 -129 29 -175 1z"/>
<path d="M10344 15306 c-95 -42 -119 -180 -43 -255 56 -57 142 -63 207 -14 89
67 83 202 -13 258 -47 28 -102 32 -151 11z"/>
<path d="M10867 15306 c-46 -17 -64 -32 -83 -67 -15 -30 -20 -119 -6 -119 5 0
65 31 135 68 124 67 127 69 108 86 -19 17 -85 45 -106 45 -5 0 -27 -6 -48 -13z"/>
<path d="M9070 15058 c-155 -79 -94 -318 80 -318 91 0 170 79 170 171 0 56
-39 119 -90 146 -55 29 -104 29 -160 1z"/>
<path d="M9619 15070 c-103 -18 -160 -141 -109 -239 57 -114 225 -115 288 -3
69 124 -36 267 -179 242z"/>
<path d="M14971 15064 c-125 -34 -228 -119 -288 -240 -63 -128 -57 -284 14
-416 31 -58 108 -131 228 -218 411 -297 813 -740 1084 -1195 316 -532 500
-1088 567 -1715 20 -186 22 -578 5 -760 -97 -1013 -522 -1905 -1240 -2602
-659 -641 -1480 -1030 -2411 -1145 -110 -13 -221 -17 -455 -18 -326 0 -406 6
-695 52 -146 24 -171 25 -233 15 -308 -53 -470 -387 -321 -663 62 -113 177
-195 314 -223 269 -54 571 -80 935 -80 490 0 881 51 1327 174 1722 472 3079
1846 3528 3572 65 252 103 457 136 738 21 187 30 684 15 891 -80 1086 -483
2071 -1190 2909 -138 164 -413 438 -576 574 -175 146 -358 282 -425 316 -99
50 -214 62 -319 34z"/>
<path d="M10100 15059 c-122 -51 -134 -224 -20 -288 82 -46 180 -9 229 86 29
57 2 139 -61 186 -31 23 -111 32 -148 16z"/>
<path d="M10589 15045 c-24 -13 -65 -63 -57 -70 3 -3 123 66 135 79 12 12 -52
5 -78 -9z"/>
<path d="M50950 14994 c-798 -44 -1403 -340 -1746 -855 -315 -473 -348 -1179
-76 -1634 207 -347 584 -603 1178 -800 128 -42 294 -85 985 -254 791 -194
1121 -414 1195 -799 53 -277 -41 -561 -251 -761 -127 -120 -259 -196 -454
-261 -208 -70 -316 -84 -626 -85 -283 0 -331 5 -518 51 -534 133 -854 496
-908 1030 l-12 114 -454 0 -454 0 5 -57 c3 -32 8 -94 11 -138 14 -192 68 -423
143 -603 168 -406 461 -715 877 -924 377 -190 770 -272 1300 -272 533 0 920
82 1305 274 495 248 819 653 920 1150 43 210 48 460 15 655 -106 613 -562
1037 -1400 1304 -71 23 -373 102 -670 177 -542 135 -725 189 -896 264 -368
162 -547 372 -565 663 -32 494 371 878 1006 956 110 14 351 14 465 0 583 -71
976 -432 1047 -960 l12 -89 438 0 438 0 0 43 c-1 143 -51 409 -106 571 -235
682 -843 1124 -1679 1221 -127 14 -415 25 -525 19z"/>
<path d="M56755 14994 c-448 -27 -808 -121 -1154 -300 -803 -416 -1334 -1230
-1465 -2244 -39 -302 -46 -758 -16 -1040 71 -659 299 -1238 667 -1695 102
-127 320 -339 445 -433 392 -295 830 -464 1340 -518 187 -20 595 -14 754 10
783 119 1394 505 1779 1126 154 248 285 601 339 908 l6 32 -460 0 -459 0 -11
-42 c-26 -99 -84 -260 -126 -348 -97 -205 -272 -420 -453 -555 -169 -127 -407
-231 -645 -281 -164 -35 -471 -44 -653 -20 -886 117 -1469 784 -1609 1841 -22
165 -25 655 -6 820 74 615 268 1061 612 1405 178 178 344 290 555 375 250 101
580 148 864 125 546 -44 931 -255 1218 -667 97 -139 195 -366 234 -537 l12
-56 464 0 463 0 -5 23 c-3 12 -14 67 -26 122 -206 977 -947 1705 -1928 1895
-210 41 -546 65 -736 54z"/>
<path d="M22040 11870 l0 -3030 455 0 455 0 0 1350 0 1350 1505 0 1505 0 0
-1350 0 -1350 455 0 455 0 0 3030 0 3030 -455 0 -455 0 0 -1280 0 -1280 -1505
0 -1505 0 0 1280 0 1280 -455 0 -455 0 0 -3030z"/>
<path d="M27557 14888 c4 -7 506 -825 1115 -1818 l1108 -1805 0 -1212 0 -1213
450 0 450 0 0 1206 0 1207 1110 1819 c611 1001 1110 1822 1110 1824 0 2 -235
3 -522 2 l-522 -3 -508 -860 c-280 -473 -569 -961 -642 -1085 -167 -282 -271
-465 -377 -664 -46 -86 -86 -156 -89 -156 -4 0 -38 57 -75 128 -138 257 -251
449 -902 1535 l-664 1107 -525 0 c-418 0 -524 -3 -517 -12z"/>
<path d="M33590 11870 l0 -3030 455 0 455 0 0 1124 0 1125 813 4 c772 3 818 4
944 25 702 113 1206 452 1479 993 185 369 242 873 149 1335 -77 381 -269 720
-542 960 -278 242 -626 395 -1066 467 -129 21 -157 21 -1409 24 l-1278 4 0
-3031z m2345 2240 c488 -45 824 -254 991 -616 101 -218 128 -559 64 -807 -98
-386 -375 -658 -774 -761 -183 -48 -203 -49 -978 -53 l-738 -4 0 1125 0 1126
663 0 c368 0 711 -5 772 -10z"/>
<path d="M38780 11870 l0 -3030 2015 0 2015 0 0 395 0 395 -1560 0 -1560 0 0
950 0 950 1440 0 1440 0 0 390 0 390 -1440 0 -1440 0 0 900 0 900 1555 0 1555
0 0 395 0 395 -2010 0 -2010 0 0 -3030z"/>
<path d="M43720 11870 l0 -3030 455 0 455 0 0 1145 0 1145 683 0 682 0 605
-1145 605 -1145 513 0 513 0 -39 73 c-93 170 -1272 2367 -1272 2370 0 3 21 12
48 22 85 32 275 132 367 192 358 236 606 582 709 989 119 470 69 1020 -131
1417 -266 533 -748 854 -1456 970 -129 21 -158 21 -1434 24 l-1303 4 0 -3031z
m2558 2221 c480 -90 788 -358 894 -778 20 -78 23 -113 23 -303 0 -190 -3 -225
-23 -303 -114 -453 -460 -725 -997 -787 -54 -6 -385 -10 -817 -10 l-728 0 0
1106 0 1105 768 -4 c732 -4 772 -5 880 -26z"/>
<path d="M61915 14888 c-80 -219 -2185 -6042 -2185 -6045 0 -2 219 -2 486 -1
l486 3 249 715 c137 393 260 748 275 788 l26 72 1213 0 1213 0 56 -162 c31
-90 153 -444 270 -788 l214 -625 496 -3 496 -2 -25 67 c-14 38 -506 1400
-1094 3028 l-1069 2960 -551 3 c-436 2 -553 0 -556 -10z m699 -1260 c210 -686
395 -1254 606 -1868 104 -305 190 -558 190 -562 0 -4 -426 -8 -946 -8 -897 0
-946 1 -939 18 42 108 438 1263 515 1502 100 309 311 991 386 1243 20 70 40
127 43 127 3 0 69 -204 145 -452z"/>
<path d="M65880 11870 l0 -3030 455 0 455 0 0 1834 c0 1691 -5 2166 -29 2761
-5 116 -8 211 -7 212 1 1 37 -60 81 -135 538 -936 686 -1176 1853 -3019 l1047
-1653 513 0 512 0 0 3030 0 3030 -455 0 -455 0 0 -2087 c0 -1323 4 -2201 11
-2396 6 -170 9 -310 7 -312 -2 -2 -46 73 -98 168 -112 205 -329 585 -430 752
-40 66 -606 965 -1258 1998 l-1185 1877 -508 0 -509 0 0 -3030z"/>
<path d="M8830 14814 c-71 -31 -103 -81 -103 -160 0 -98 68 -165 166 -166 60
-1 105 19 136 57 111 142 -35 340 -199 269z"/>
<path d="M9307 14795 c-48 -33 -71 -78 -71 -140 -1 -100 78 -171 178 -163 98
8 163 84 153 181 -8 89 -74 147 -166 147 -44 0 -65 -6 -94 -25z"/>
<path d="M9828 14799 c-50 -26 -78 -81 -78 -154 0 -49 4 -59 36 -95 20 -22 45
-40 56 -40 10 0 64 34 118 75 92 70 100 78 100 110 0 95 -135 156 -232 104z"/>
<path d="M12330 14784 c-213 -42 -382 -196 -444 -403 -20 -67 -21 -226 -2
-296 42 -161 148 -288 301 -363 81 -40 135 -50 305 -57 190 -8 307 -21 463
-51 355 -69 695 -209 996 -409 173 -114 273 -197 427 -350 433 -431 690 -942
791 -1570 25 -154 25 -614 0 -763 -27 -169 -66 -329 -113 -471 -321 -963
-1189 -1711 -2184 -1880 -541 -92 -1088 -4 -1598 260 -275 141 -471 287 -718
534 -270 270 -436 502 -612 855 -78 157 -94 182 -157 246 -112 112 -236 164
-395 164 -161 0 -293 -55 -403 -168 -107 -112 -157 -236 -157 -392 0 -118 18
-180 110 -365 570 -1159 1613 -1985 2810 -2225 254 -51 398 -64 695 -65 355 0
560 24 892 105 985 242 1877 900 2419 1786 586 957 720 2126 368 3207 -333
1021 -1104 1882 -2083 2327 -376 171 -752 275 -1171 326 -126 15 -493 27 -540
18z"/>
<path d="M9060 14548 c-76 -52 -101 -139 -61 -220 76 -157 321 -100 321 75 0
46 -39 118 -79 144 -47 32 -135 32 -181 1z"/>
<path d="M9576 14547 c-49 -28 -75 -62 -82 -109 -9 -54 2 -99 34 -138 l29 -34
121 99 c67 55 122 103 122 107 0 21 -36 61 -71 79 -50 25 -105 24 -153 -4z"/>
<path d="M8811 14299 c-47 -28 -68 -56 -81 -107 -37 -147 123 -265 256 -187
48 28 84 91 84 147 0 52 -40 119 -86 145 -52 30 -126 31 -173 2z"/>
<path d="M9335 14306 c-70 -30 -117 -127 -96 -197 6 -20 20 -47 30 -60 l18
-23 122 109 c69 62 120 115 119 124 -4 22 -86 61 -127 61 -20 -1 -50 -7 -66
-14z"/>
<path d="M9072 14049 c-54 -27 -92 -88 -92 -148 0 -47 25 -111 44 -111 18 0
239 227 232 238 -11 17 -73 42 -108 42 -18 0 -52 -10 -76 -21z"/>
<path d="M12225 13309 c-912 -94 -1690 -680 -2028 -1529 -196 -491 -226 -1044
-83 -1560 190 -692 694 -1278 1352 -1573 450 -202 959 -262 1452 -171 165 30
241 64 317 139 240 240 128 661 -199 750 -73 20 -166 17 -301 -9 -193 -37
-420 -30 -624 19 -514 125 -942 515 -1106 1009 -179 538 -66 1128 292 1527
219 244 432 373 748 454 180 46 298 59 474 52 593 -24 1095 -360 1361 -910 52
-106 121 -180 212 -225 343 -169 718 130 637 507 -6 28 -41 112 -79 187 -237
469 -614 846 -1083 1083 -242 122 -476 196 -752 237 -122 18 -467 26 -590 13z"/>
<path d="M9545 13159 c-70 -10 -131 -27 -100 -28 17 -1 17 -3 5 -15 -20 -19
-56 -25 -52 -8 3 19 -10 15 -76 -25 -121 -73 -218 -191 -262 -316 -27 -77 -38
-246 -21 -329 12 -54 84 -218 96 -218 4 0 3 5 -1 12 -4 7 -3 8 5 4 6 -4 8 -12
5 -18 -4 -5 25 -41 63 -78 118 -115 253 -170 418 -170 173 0 297 51 421 175
124 123 178 251 177 425 -1 165 -59 306 -176 422 -37 37 -73 68 -79 68 -6 0
-5 -7 3 -17 13 -16 12 -17 -3 -4 -10 7 -15 17 -13 22 8 12 -106 67 -173 83
-79 20 -166 25 -237 15z m109 -15 c22 -8 10 -24 -19 -24 -25 0 -39 12 -28 24
8 8 27 8 47 0z m86 -4 c11 -7 7 -10 -17 -10 -17 0 -35 5 -38 10 -8 13 35 13
55 0z m-162 -22 c-5 -15 -33 -22 -54 -14 -24 9 -6 26 27 26 20 0 29 -4 27 -12z
m201 -14 c3 -3 0 -9 -6 -15 -13 -13 -57 7 -47 22 5 9 41 4 53 -7z m-81 -3 c11
-6 10 -10 -1 -19 -17 -14 -57 -4 -57 14 0 15 37 19 58 5z m148 -6 c16 -12 17
-14 2 -15 -23 0 -48 11 -48 21 0 14 24 11 46 -6z m-346 -5 c0 -6 -11 -16 -25
-22 -20 -9 -28 -9 -38 1 -9 9 -9 14 3 21 20 13 60 13 60 0z m-120 -4 c0 -13
-34 -36 -53 -36 -22 1 -22 1 2 20 21 18 51 27 51 16z m246 -7 c3 -6 0 -15 -7
-20 -21 -14 -53 -6 -57 14 -3 13 3 17 27 17 16 0 33 -5 37 -11z m288 -4 c16
-12 17 -15 4 -15 -8 0 -21 7 -28 15 -16 19 -1 19 24 0z m-98 -19 c17 -13 17
-15 2 -21 -20 -8 -61 12 -53 26 9 13 28 11 51 -5z m-396 -6 c0 -5 -11 -17 -26
-26 -20 -13 -28 -14 -37 -5 -9 10 -8 16 7 27 23 16 56 19 56 4z m125 -10 c0
-10 -12 -16 -32 -18 -32 -3 -45 13 -26 32 13 12 58 2 58 -14z m201 9 c3 -6 1
-16 -5 -22 -13 -13 -65 8 -56 23 8 13 52 13 61 -1z m140 -4 c19 -14 19 -14 -2
-15 -12 0 -27 7 -34 15 -17 20 9 21 36 0z m-586 -12 c0 -12 -33 -43 -47 -43
-20 0 -16 17 9 34 24 17 38 20 38 9z m375 -13 c0 -19 -41 -25 -60 -10 -22 18
-8 32 28 28 20 -2 32 -8 32 -18z m275 5 c16 -19 0 -19 -26 0 -16 12 -16 14 -3
15 9 0 22 -7 29 -15z m-480 -18 c0 -20 -22 -37 -47 -37 -25 0 -30 19 -11 38
16 16 58 15 58 -1z m130 -16 c0 -17 -30 -32 -50 -26 -24 8 -26 31 -3 44 18 10
53 -2 53 -18z m267 -5 c-5 -16 -21 -17 -41 -3 -28 20 -12 39 20 25 13 -6 23
-16 21 -22z m-527 11 c0 -19 -21 -37 -42 -37 -22 0 -23 13 -2 34 19 19 44 21
44 3z m445 0 c19 -14 13 -37 -9 -37 -21 0 -49 26 -42 38 10 16 28 15 51 -1z
m140 -7 c11 -13 14 -20 6 -20 -18 0 -51 19 -51 30 0 17 26 11 45 -10z m86 3
c13 -15 12 -15 -8 -4 -24 12 -29 21 -14 21 5 0 15 -7 22 -17z m-296 -16 c22
-17 12 -37 -20 -37 -27 0 -39 14 -31 35 7 19 27 19 51 2z m271 -1 c10 -8 16
-17 13 -20 -3 -4 -17 2 -30 13 -27 23 -13 28 17 7z m-772 -37 c-20 -23 -34
-25 -34 -5 0 19 44 50 48 36 2 -6 -4 -20 -14 -31z m176 11 c0 -26 -36 -46 -56
-29 -13 10 -12 14 2 30 23 25 54 25 54 -1z m128 -2 c-3 -25 -43 -37 -61 -19
-15 15 10 41 40 41 20 0 24 -4 21 -22z m127 -5 c16 -16 16 -17 -1 -30 -22 -16
-26 -16 -49 1 -16 12 -17 16 -6 30 17 21 35 20 56 -1z m256 -3 l24 -20 -30 2
c-19 2 -31 9 -33 21 -5 23 10 22 39 -3z m144 0 c10 -11 16 -20 13 -20 -3 0
-13 9 -23 20 -10 11 -16 20 -13 20 3 0 13 -9 23 -20z m-775 -10 c0 -16 -26
-40 -44 -40 -11 0 -6 36 6 48 18 18 38 14 38 -8z m566 6 c14 -11 16 -18 8 -26
-17 -17 -54 -2 -54 21 0 23 19 25 46 5z m125 4 c19 -11 26 -30 10 -30 -5 0
-19 9 -32 20 -26 21 -11 27 22 10z m74 -30 c8 -13 -1 -13 -26 0 -10 6 -19 15
-19 21 0 11 35 -5 45 -21z m-267 8 c19 -19 14 -38 -12 -38 -31 0 -56 28 -35
41 19 12 33 11 47 -3z m-322 -13 c8 -20 -13 -45 -38 -45 -24 0 -34 26 -18 45
16 19 49 19 56 0z m122 6 c23 -14 10 -46 -21 -49 -35 -4 -49 25 -22 44 22 16
25 17 43 5z m-417 -44 c-18 -18 -21 -19 -21 -5 0 22 33 55 38 38 3 -7 -5 -22
-17 -33z m169 25 c0 -21 -18 -42 -37 -42 -20 0 -27 28 -13 45 18 21 50 19 50
-3z m380 -7 c16 -19 6 -45 -18 -45 -29 0 -48 26 -32 45 16 19 34 19 50 0z
m241 5 c26 -14 24 -32 -3 -28 -13 2 -24 11 -26 21 -4 20 2 21 29 7z m140 -7
c13 -16 12 -17 -3 -4 -17 13 -22 21 -14 21 2 0 10 -8 17 -17z m-191 -8 c19
-23 -1 -40 -29 -26 -22 12 -26 23 -14 34 11 12 30 8 43 -8z m114 9 c9 -3 16
-10 16 -15 0 -14 -26 -10 -40 6 -13 16 -3 20 24 9z m-796 -20 c-3 -19 -34 -41
-43 -32 -4 3 -2 16 5 27 13 25 43 28 38 5z m858 -12 c-4 -3 -14 2 -24 12 -16
18 -16 18 6 6 13 -6 21 -14 18 -18z m-558 -19 c-4 -22 -32 -38 -52 -30 -21 8
-21 43 1 56 22 12 55 -5 51 -26z m317 24 c23 -17 12 -37 -21 -37 -28 0 -44 28
-23 41 19 12 22 11 44 -4z m-450 -7 c10 -16 -14 -50 -36 -50 -25 0 -35 25 -19
45 14 17 46 20 55 5z m265 -24 c0 -20 -27 -39 -45 -32 -25 9 -30 37 -10 52 20
15 55 2 55 -20z m471 7 c13 -16 12 -17 -3 -4 -17 13 -22 21 -14 21 2 0 10 -8
17 -17z m-1005 -31 c-22 -23 -29 -10 -9 18 11 16 18 19 21 11 2 -7 -3 -20 -12
-29z m152 22 c-2 -9 -13 -23 -25 -31 -20 -14 -23 -14 -29 1 -8 21 13 46 38 46
13 0 18 -6 16 -16z m510 -22 c-5 -24 -53 -28 -62 -5 -10 25 20 46 46 32 11 -6
18 -18 16 -27z m233 22 c11 -14 10 -15 -11 -12 -13 1 -25 9 -28 16 -5 17 23
15 39 -4z m50 0 c12 -14 11 -16 -5 -13 -11 2 -21 10 -24 17 -5 17 13 15 29 -4z
m-103 -16 c2 -12 -3 -18 -16 -18 -22 0 -46 23 -35 34 13 13 48 1 51 -16z m158
-6 c-4 -3 -14 2 -24 12 -16 18 -16 18 6 6 13 -6 21 -14 18 -18z m-946 0 c0 -5
-6 -16 -13 -27 -18 -24 -41 -11 -27 16 10 19 40 27 40 11z m274 -14 c13 -22
-10 -50 -38 -46 -27 4 -33 38 -10 55 21 15 34 13 48 -9z m445 13 c19 -12 6
-41 -18 -41 -23 0 -35 15 -27 35 6 17 24 19 45 6z m-571 -28 c2 -14 -4 -26
-18 -33 -24 -13 -40 -6 -40 19 0 41 52 54 58 14z m257 -3 c0 -20 -6 -26 -28
-28 -29 -4 -44 16 -33 44 4 10 15 14 33 12 22 -2 28 -8 28 -28z m135 5 c15
-18 -2 -45 -30 -45 -28 0 -45 27 -30 45 7 8 20 15 30 15 10 0 23 -7 30 -15z
m-506 -33 c-14 -22 -44 -28 -44 -8 0 23 31 49 44 36 7 -7 8 -15 0 -28z m631 3
c0 -25 -37 -32 -54 -11 -18 21 -4 38 27 34 19 -2 27 -9 27 -23z m-325 -35 c0
-11 -8 -24 -18 -29 -39 -21 -74 36 -35 58 23 12 53 -4 53 -29z m-390 16 c0 -7
-7 -19 -15 -26 -12 -10 -15 -9 -15 7 0 11 3 23 7 26 11 12 23 8 23 -7z m258
-13 c4 -30 -31 -49 -52 -27 -12 12 -13 20 -5 35 14 27 53 22 57 -8z m263 11
c27 -33 -24 -70 -55 -39 -12 12 -13 21 -6 36 13 23 43 25 61 3z m-385 -9 c7
-18 -12 -45 -32 -45 -14 0 -20 41 -7 53 11 12 33 7 39 -8z m514 0 c19 -23 4
-47 -27 -43 -31 3 -44 35 -21 49 19 13 34 11 48 -6z m-610 -29 c0 -8 -7 -19
-15 -26 -12 -10 -16 -9 -21 4 -7 18 13 49 27 40 5 -3 9 -11 9 -18z m279 -20
c18 -22 -4 -58 -32 -54 -37 5 -36 68 1 68 11 0 25 -6 31 -14z m139 -12 c2 -11
-4 -26 -12 -33 -31 -26 -71 14 -45 45 17 21 53 14 57 -12z m127 10 c18 -19 16
-33 -8 -48 -18 -11 -47 0 -54 21 -4 12 23 43 37 43 5 0 16 -7 25 -16z m-625
-8 c0 -8 -4 -18 -10 -21 -5 -3 -10 3 -10 14 0 12 5 21 10 21 6 0 10 -6 10 -14z
m236 -1 c7 -18 -13 -45 -33 -45 -17 0 -27 24 -19 45 7 20 45 19 52 0z m-109
-11 c8 -21 -23 -52 -38 -37 -14 14 -2 53 17 53 8 0 17 -7 21 -16z m-93 -37
c-3 -9 -10 -17 -15 -17 -11 0 -12 34 -2 44 11 11 24 -9 17 -27z m390 -3 c19
-19 20 -26 4 -42 -32 -32 -81 7 -51 40 20 22 27 22 47 2z m146 -24 c0 -11 -8
-24 -18 -29 -39 -21 -74 36 -35 58 23 12 53 -4 53 -29z m-395 -1 c0 -15 -7
-25 -18 -27 -22 -4 -33 24 -17 43 18 21 35 13 35 -16z m120 1 c0 -18 -6 -26
-23 -28 -24 -4 -38 18 -28 44 3 9 15 14 28 12 17 -2 23 -10 23 -28z m-217 -16
c-4 -24 -24 -29 -32 -8 -8 20 13 49 27 35 5 -5 7 -17 5 -27z m-78 -9 c0 -8 -4
-15 -10 -15 -5 0 -10 7 -10 15 0 8 5 15 10 15 6 0 10 -7 10 -15z m240 -40 c0
-13 -6 -25 -12 -28 -22 -7 -38 4 -38 28 0 13 6 25 13 28 21 7 37 -4 37 -28z
m118 26 c20 -12 11 -55 -12 -59 -27 -6 -48 25 -35 49 10 20 26 24 47 10z m146
-13 c15 -24 -13 -53 -43 -43 -21 6 -29 43 -14 59 12 12 45 2 57 -16z m-377 -4
c8 -21 -13 -42 -28 -27 -13 13 -5 43 11 43 6 0 13 -7 17 -16z m-87 -14 c0 -21
-15 -27 -25 -10 -7 12 2 30 16 30 5 0 9 -9 9 -20z m-30 -51 c0 -5 -4 -9 -10
-9 -5 0 -10 7 -10 16 0 8 5 12 10 9 6 -3 10 -10 10 -16z m78 -2 c2 -10 -3 -17
-12 -17 -18 0 -29 16 -21 31 9 14 29 6 33 -14z m100 -5 c3 -16 -2 -22 -17 -22
-24 0 -35 15 -27 36 9 23 40 13 44 -14z m117 -2 c0 -33 -40 -41 -50 -11 -9 28
2 43 28 39 16 -2 22 -10 22 -28z m139 7 c15 -25 -18 -51 -45 -36 -19 10 -25
39 -12 53 12 12 45 2 57 -17z m-394 -47 c0 -11 -4 -20 -9 -20 -11 0 -22 26
-14 34 12 12 23 5 23 -14z m90 -10 c0 -23 -25 -27 -33 -6 -7 16 1 26 20 26 7
0 13 -9 13 -20z m110 5 c15 -18 6 -45 -13 -45 -21 0 -38 25 -31 44 8 20 28 21
44 1z m128 -41 c-19 -19 -45 -13 -55 12 -4 11 1 22 12 31 17 11 22 11 39 -7
19 -18 19 -21 4 -36z m-358 5 c0 -6 -4 -7 -10 -4 -5 3 -10 11 -10 16 0 6 5 7
10 4 6 -3 10 -11 10 -16z m80 -20 c0 -24 -23 -21 -28 4 -2 10 3 17 12 17 10 0
16 -9 16 -21z m100 -4 c10 -12 10 -19 2 -27 -15 -15 -48 14 -38 31 10 15 21
14 36 -4z m118 -7 c16 -16 15 -35 -2 -41 -21 -8 -50 17 -43 37 7 19 28 21 45
4z m-250 -27 c3 -8 -1 -12 -9 -9 -7 2 -15 10 -17 17 -3 8 1 12 9 9 7 -2 15
-10 17 -17z m89 -16 c3 -9 3 -19 -1 -22 -7 -7 -36 16 -36 28 0 15 30 10 37 -6z
m117 -22 c4 -9 1 -20 -6 -24 -15 -9 -38 8 -38 27 0 20 37 17 44 -3z m-156 -22
c3 -8 -1 -12 -9 -9 -7 2 -15 10 -17 17 -3 8 1 12 9 9 7 -2 15 -10 17 -17z
m112 -30 c0 -13 -11 -20 -26 -14 -8 3 -14 14 -14 24 0 17 3 18 20 9 11 -6 20
-14 20 -19z m-51 -24 c6 -8 8 -17 4 -20 -7 -8 -33 11 -33 24 0 13 16 11 29 -4z"/>
<path d="M12295 12102 c-60 -7 -105 -23 -105 -37 0 -20 78 -20 125 -1 55 23
43 45 -20 38z"/>
<path d="M12407 12103 c18 -2 50 -2 70 0 21 2 7 4 -32 4 -38 0 -55 -2 -38 -4z"/>
<path d="M12648 12093 c-28 -7 -21 -23 18 -39 40 -17 115 -15 121 3 6 18 -100
45 -139 36z"/>
<path d="M12473 12080 c-43 -17 -21 -45 42 -55 50 -8 98 9 93 32 -5 28 -88 42
-135 23z"/>
<path d="M12840 12047 c14 -8 41 -17 60 -21 l35 -6 -31 15 c-17 7 -44 17 -60
20 l-29 6 25 -14z"/>
<path d="M12060 12028 c-25 -13 -47 -31 -48 -42 -4 -17 1 -18 48 -14 83 8 144
69 75 76 -17 1 -50 -8 -75 -20z"/>
<path d="M12300 12037 c-33 -16 -32 -38 2 -55 33 -16 89 -7 121 18 18 15 19
20 8 34 -16 20 -95 21 -131 3z"/>
<path d="M12733 12014 c-7 -3 -13 -12 -13 -20 0 -39 140 -70 148 -32 2 9 -7
23 -20 32 -25 16 -96 29 -115 20z"/>
<path d="M12561 11993 l-24 -20 20 -20 c41 -41 143 -37 143 6 0 41 -100 65
-139 34z"/>
<path d="M12892 11988 c8 -22 55 -49 96 -55 56 -8 57 19 2 47 -44 22 -104 27
-98 8z"/>
<path d="M12132 11970 c-24 -15 -32 -27 -30 -43 3 -20 9 -22 60 -22 63 0 101
24 96 59 -4 31 -81 34 -126 6z"/>
<path d="M11835 11942 c-63 -38 -62 -56 2 -24 37 19 85 63 67 61 -5 0 -36 -17
-69 -37z"/>
<path d="M12400 11957 c-31 -16 -38 -46 -14 -64 21 -16 97 -17 125 -3 29 16
25 58 -7 70 -34 13 -74 12 -104 -3z"/>
<path d="M11899 11940 c-44 -23 -63 -45 -55 -65 15 -40 146 19 146 67 0 24
-43 23 -91 -2z"/>
<path d="M13062 11948 c6 -18 49 -47 86 -57 17 -5 32 -8 32 -5 0 5 -107 74
-115 74 -4 0 -5 -5 -3 -12z"/>
<path d="M12827 11908 c-38 -28 21 -78 93 -78 37 0 41 2 38 21 -6 44 -96 82
-131 57z"/>
<path d="M12257 11900 c-39 -12 -57 -29 -57 -54 0 -32 19 -46 62 -46 58 0 98
24 98 59 0 24 -6 31 -31 40 -36 12 -34 12 -72 1z"/>
<path d="M11970 11878 c-45 -31 -54 -74 -16 -84 53 -13 142 41 134 83 -5 29
-75 30 -118 1z"/>
<path d="M12651 11886 c-27 -32 22 -76 83 -76 50 0 66 9 66 36 0 44 -119 76
-149 40z"/>
<path d="M12982 11883 c7 -39 115 -83 132 -54 6 9 -28 43 -61 60 -35 18 -75
14 -71 -6z"/>
<path d="M11679 11831 c-30 -27 -51 -52 -47 -56 14 -15 118 66 118 92 0 22
-14 15 -71 -36z"/>
<path d="M12498 11849 c-25 -14 -22 -55 4 -73 31 -22 101 -21 121 2 22 24 21
38 -3 62 -22 22 -92 27 -122 9z"/>
<path d="M13140 11845 c0 -19 69 -65 97 -65 34 0 28 16 -19 50 -44 32 -78 39
-78 15z"/>
<path d="M11754 11831 c-34 -21 -64 -57 -64 -78 0 -34 107 5 130 47 27 50 -8
66 -66 31z"/>
<path d="M12080 11802 c-41 -20 -61 -62 -40 -86 18 -23 86 -20 121 5 51 36 33
99 -28 99 -10 0 -34 -8 -53 -18z"/>
<path d="M12345 11788 c-62 -35 -36 -108 38 -108 48 0 87 26 87 60 0 50 -72
78 -125 48z"/>
<path d="M12921 11791 c-19 -13 -5 -49 27 -65 45 -22 78 -26 97 -12 47 34 -73
109 -124 77z"/>
<path d="M13286 11792 c-6 -10 67 -82 84 -82 15 0 13 3 -34 49 -24 24 -46 38
-50 33z"/>
<path d="M11826 11771 c-35 -24 -58 -63 -50 -85 19 -50 149 17 142 73 -2 21
-9 27 -33 29 -17 1 -43 -6 -59 -17z"/>
<path d="M13074 11775 c-12 -29 50 -75 101 -75 31 0 32 20 3 47 -47 43 -94 55
-104 28z"/>
<path d="M12760 11765 c-27 -32 30 -85 93 -85 21 0 57 22 57 35 0 49 -118 89
-150 50z"/>
<path d="M11545 11703 c-44 -47 -56 -73 -34 -73 18 0 99 85 99 104 0 27 -18
18 -65 -31z"/>
<path d="M13220 11736 c0 -30 98 -91 117 -72 4 3 -13 24 -36 46 -42 40 -81 52
-81 26z"/>
<path d="M12608 11729 c-46 -26 3 -99 66 -99 39 0 76 25 76 50 0 45 -94 77
-142 49z"/>
<path d="M11599 11681 c-47 -46 -52 -81 -13 -81 16 0 39 13 60 34 21 21 34 44
34 60 0 39 -35 34 -81 -13z"/>
<path d="M11930 11693 c-19 -10 -41 -30 -50 -45 -21 -39 -5 -62 49 -66 35 -3
46 2 71 27 63 63 12 125 -70 84z"/>
<path d="M12169 11681 c-34 -35 -36 -54 -9 -81 43 -43 150 -4 150 54 0 60 -91
77 -141 27z"/>
<path d="M13360 11677 c0 -16 74 -87 90 -87 14 0 12 9 -9 38 -26 36 -81 69
-81 49z"/>
<path d="M12458 11665 c-50 -28 -32 -96 28 -111 51 -13 104 18 104 60 0 50
-80 80 -132 51z"/>
<path d="M13020 11645 c0 -18 10 -31 33 -45 34 -21 92 -27 102 -10 18 29 -49
80 -105 80 -25 0 -30 -4 -30 -25z"/>
<path d="M13166 11661 c-12 -19 15 -52 56 -71 70 -31 94 -1 36 44 -39 29 -83
42 -92 27z"/>
<path d="M11674 11626 c-27 -27 -35 -42 -32 -63 5 -44 49 -44 94 1 27 27 35
42 32 63 -5 44 -49 44 -94 -1z"/>
<path d="M12876 11644 c-23 -22 -20 -40 11 -63 53 -42 123 -40 123 3 0 56 -96
99 -134 60z"/>
<path d="M13300 11621 c0 -15 64 -72 88 -78 40 -10 38 7 -5 48 -39 36 -83 52
-83 30z"/>
<path d="M11458 11593 c-18 -21 -68 -100 -68 -108 0 -24 63 33 87 78 18 35 4
56 -19 30z"/>
<path d="M12722 11598 c-20 -20 -13 -55 14 -77 34 -27 95 -28 117 -3 23 25 21
39 -8 67 -18 19 -35 25 -68 25 -23 0 -48 -5 -55 -12z"/>
<path d="M12035 11588 c-47 -25 -60 -81 -27 -111 46 -42 142 6 142 71 0 43
-67 67 -115 40z"/>
<path d="M12296 11569 c-26 -20 -35 -61 -18 -85 24 -37 97 -41 134 -7 26 23
24 78 -4 97 -31 22 -80 20 -112 -5z"/>
<path d="M11794 11570 c-29 -11 -64 -58 -64 -84 0 -53 65 -63 111 -17 60 60
27 131 -47 101z"/>
<path d="M11481 11535 c-36 -41 -42 -85 -12 -85 26 0 81 65 81 95 0 37 -32 32
-69 -10z"/>
<path d="M13439 11551 c13 -23 81 -84 88 -77 3 3 -5 19 -16 35 -35 49 -94 83
-72 42z"/>
<path d="M12600 11543 c-27 -10 -50 -36 -50 -55 0 -34 45 -68 90 -68 42 0 80
26 80 54 0 40 -78 85 -120 69z"/>
<path d="M13125 11540 c-20 -32 36 -80 94 -80 53 0 51 36 -4 70 -35 21 -80 26
-90 10z"/>
<path d="M13260 11526 c0 -23 59 -66 91 -66 39 0 38 22 -4 54 -37 28 -87 35
-87 12z"/>
<path d="M12992 11518 c-18 -18 -14 -45 10 -68 18 -16 33 -20 68 -18 41 3 45
6 48 30 3 22 -3 32 -30 48 -37 22 -78 26 -96 8z"/>
<path d="M11553 11485 c-43 -43 -44 -88 -2 -93 47 -6 106 80 78 114 -18 22
-38 17 -76 -21z"/>
<path d="M13390 11502 c0 -23 63 -72 93 -72 17 0 17 2 3 21 -27 39 -96 75 -96
51z"/>
<path d="M12139 11451 c-31 -31 -35 -50 -18 -82 34 -65 159 -28 159 47 0 13
-12 32 -26 43 -38 30 -80 27 -115 -8z"/>
<path d="M12846 11464 c-38 -38 6 -94 75 -94 75 0 93 62 28 95 -37 19 -84 19
-103 -1z"/>
<path d="M11866 11439 c-29 -35 -33 -70 -10 -93 41 -41 134 6 134 68 0 42 -16
56 -61 56 -29 0 -43 -7 -63 -31z"/>
<path d="M12450 11453 c-51 -20 -66 -77 -30 -113 24 -24 86 -27 118 -4 28 19
30 74 4 97 -20 19 -69 29 -92 20z"/>
<path d="M11346 11402 c-15 -30 -25 -59 -23 -65 6 -18 59 80 55 100 -3 13 -13
2 -32 -35z"/>
<path d="M13510 11441 c0 -9 76 -81 85 -81 13 0 2 19 -29 53 -32 35 -56 47
-56 28z"/>
<path d="M11653 11420 c-33 -20 -47 -50 -41 -91 5 -37 60 -39 93 -3 27 29 34
81 13 102 -16 16 -28 15 -65 -8z"/>
<path d="M13234 11415 c-10 -25 4 -45 42 -61 44 -18 87 -11 82 14 -4 22 -65
62 -95 62 -13 0 -26 -7 -29 -15z"/>
<path d="M13360 11410 c0 -23 53 -60 88 -60 34 0 27 26 -15 55 -46 31 -73 33
-73 5z"/>
<path d="M11392 11397 c-31 -33 -46 -86 -26 -94 18 -7 41 12 60 48 31 61 8 91
-34 46z"/>
<path d="M12700 11390 c-63 -63 57 -147 127 -89 14 12 17 57 5 75 -24 37 -101
45 -132 14z"/>
<path d="M13107 11393 c-4 -3 -7 -17 -7 -29 0 -32 40 -56 87 -52 32 2 39 7 41
27 5 32 -32 60 -79 61 -20 0 -39 -3 -42 -7z"/>
<path d="M13480 11385 c0 -15 77 -72 85 -63 11 11 -8 38 -40 58 -39 24 -45 25
-45 5z"/>
<path d="M11455 11346 c-42 -42 -46 -106 -6 -106 39 0 85 86 61 115 -17 21
-27 19 -55 -9z"/>
<path d="M11989 11321 c-35 -36 -37 -64 -4 -96 28 -29 54 -31 94 -10 32 16 41
33 41 75 0 64 -79 83 -131 31z"/>
<path d="M12294 11336 c-77 -34 -51 -136 34 -136 50 0 82 29 82 74 0 57 -58
88 -116 62z"/>
<path d="M12972 11338 c-34 -34 12 -98 69 -98 28 0 69 30 69 50 0 6 -11 22
-25 35 -27 27 -91 35 -113 13z"/>
<path d="M13590 11332 c0 -5 12 -19 26 -33 l27 -24 -17 33 c-15 29 -36 43 -36
24z"/>
<path d="M11740 11310 c-26 -26 -35 -66 -21 -96 16 -37 71 -34 105 7 28 33 32
59 16 90 -14 26 -73 26 -100 -1z"/>
<path d="M12562 11304 c-16 -11 -22 -25 -22 -54 0 -47 27 -70 80 -70 42 0 80
33 80 69 0 56 -87 91 -138 55z"/>
<path d="M11529 11261 c-32 -32 -39 -80 -14 -101 46 -38 126 75 83 118 -19 19
-37 14 -69 -17z"/>
<path d="M12837 11262 c-54 -59 27 -136 102 -98 23 13 31 23 31 44 0 33 -8 45
-37 61 -32 17 -78 13 -96 -7z"/>
<path d="M11318 11252 c-38 -42 -51 -102 -23 -102 18 0 43 37 51 77 7 36 -7
49 -28 25z"/>
<path d="M12145 11208 c-89 -51 -32 -170 65 -136 36 12 50 35 50 82 0 56 -62
85 -115 54z"/>
<path d="M11355 11180 c-17 -33 -20 -76 -5 -85 28 -17 81 62 66 100 -9 26 -44
17 -61 -15z"/>
<path d="M11851 11184 c-27 -34 -27 -78 -1 -104 59 -59 162 35 116 105 -24 36
-87 35 -115 -1z"/>
<path d="M12415 11185 c-51 -50 -16 -125 57 -125 42 0 75 24 84 62 5 22 0 33
-24 58 -39 38 -83 40 -117 5z"/>
<path d="M11625 11165 c-17 -16 -25 -35 -25 -58 0 -40 15 -57 51 -57 55 0 91
87 51 123 -26 24 -49 21 -77 -8z"/>
<path d="M12697 11162 c-9 -10 -17 -32 -17 -49 0 -53 58 -82 116 -58 43 18 54
56 27 93 -26 35 -100 43 -126 14z"/>
<path d="M11435 11115 c-38 -37 -30 -105 12 -105 42 0 75 109 37 124 -22 9
-22 9 -49 -19z"/>
<path d="M11246 11079 c-3 -17 -6 -41 -6 -53 1 -21 1 -21 15 -2 16 21 21 86 6
86 -5 0 -11 -14 -15 -31z"/>
<path d="M12002 11073 c-16 -6 -42 -57 -42 -83 0 -59 100 -84 139 -34 53 68
-15 150 -97 117z"/>
<path d="M12276 11059 c-48 -38 -28 -120 33 -134 33 -7 85 15 95 40 32 84 -57
150 -128 94z"/>
<path d="M11735 11045 c-44 -43 -21 -125 35 -125 59 0 95 102 48 134 -32 22
-55 20 -83 -9z"/>
<path d="M12562 11047 c-69 -74 42 -174 113 -102 34 33 33 77 -1 104 -36 28
-85 27 -112 -2z"/>
<path d="M11291 11046 c-7 -8 -15 -30 -18 -50 -5 -32 -3 -36 16 -36 16 0 26
10 36 34 22 53 -3 90 -34 52z"/>
<path d="M11520 11018 c-35 -38 -20 -108 24 -108 32 0 56 30 56 71 0 59 -41
78 -80 37z"/>
<path d="M11350 10970 c-6 -11 -10 -35 -8 -53 2 -24 8 -33 25 -35 27 -4 45 27
41 71 -4 40 -40 50 -58 17z"/>
<path d="M11865 10915 c-29 -28 -32 -70 -9 -103 11 -16 25 -22 54 -22 45 0 70
26 70 73 0 33 -40 77 -70 77 -11 0 -32 -11 -45 -25z"/>
<path d="M12135 10915 c-62 -61 4 -158 85 -125 36 15 50 37 50 78 0 65 -87 96
-135 47z"/>
<path d="M12425 10915 c-75 -74 37 -176 118 -107 17 15 24 77 9 98 -26 39 -93
44 -127 9z"/>
<path d="M11237 10913 c-11 -10 -8 -83 3 -83 14 0 30 35 30 64 0 24 -18 35
-33 19z"/>
<path d="M11626 10904 c-19 -18 -21 -85 -4 -102 18 -18 63 -14 81 6 19 21 22
64 7 93 -13 23 -62 26 -84 3z"/>
<path d="M11437 10882 c-9 -10 -17 -32 -17 -49 0 -59 54 -71 79 -18 12 25 12
32 0 54 -18 33 -40 37 -62 13z"/>
<path d="M11286 10835 c-20 -53 12 -99 41 -59 20 28 13 68 -13 72 -13 2 -24
-4 -28 -13z"/>
<path d="M12006 10777 c-67 -67 18 -175 92 -120 55 41 34 126 -35 139 -26 5
-37 1 -57 -19z"/>
<path d="M12292 10777 c-42 -44 -20 -119 37 -132 33 -7 85 15 95 40 32 83 -73
155 -132 92z"/>
<path d="M11747 10772 c-23 -25 -21 -78 3 -102 41 -41 103 -11 103 50 0 60
-69 93 -106 52z"/>
<path d="M11532 10768 c-16 -16 -15 -69 1 -92 19 -25 58 -17 77 17 13 24 13
30 0 55 -17 30 -57 41 -78 20z"/>
<path d="M11354 10735 c-4 -15 -2 -37 5 -51 21 -47 65 -19 59 38 -2 28 -7 34
-30 36 -22 3 -29 -2 -34 -23z"/>
<path d="M11241 10708 c0 -13 4 -31 8 -41 6 -17 8 -17 20 -4 17 21 10 61 -11
65 -13 3 -18 -3 -17 -20z"/>
<path d="M11456 10644 c-34 -33 -9 -99 35 -92 20 2 25 9 27 39 2 24 -3 42 -13
53 -20 20 -29 20 -49 0z"/>
<path d="M11652 10644 c-44 -30 -17 -114 37 -114 36 0 51 17 51 56 0 23 -8 39
-26 53 -32 25 -33 25 -62 5z"/>
<path d="M11307 10643 c-12 -12 -7 -60 8 -73 20 -16 35 -4 35 29 0 36 -25 62
-43 44z"/>
<path d="M11882 10638 c-20 -26 -23 -57 -8 -86 16 -32 34 -42 70 -42 52 0 76
80 36 120 -23 23 -82 27 -98 8z"/>
<path d="M12157 10632 c-42 -46 -1 -132 63 -132 49 0 76 36 71 95 -5 50 -99
76 -134 37z"/>
<path d="M11282 10519 c6 -16 13 -28 15 -25 8 8 -6 56 -17 56 -5 0 -5 -13 2
-31z"/>
<path d="M11380 10511 c0 -28 22 -61 39 -61 5 0 14 7 21 15 20 24 -5 75 -36
75 -20 0 -24 -5 -24 -29z"/>
<path d="M11557 10523 c-13 -13 -7 -72 9 -88 9 -9 28 -15 43 -13 54 6 32 108
-24 108 -12 0 -25 -3 -28 -7z"/>
<path d="M11782 10504 c-57 -40 8 -138 76 -113 34 13 31 80 -4 108 -32 25 -43
26 -72 5z"/>
<path d="M12037 10492 c-35 -39 -8 -120 41 -123 61 -4 82 11 82 61 0 30 -6 43
-26 59 -33 26 -76 27 -97 3z"/>
<path d="M11330 10427 c0 -25 17 -47 37 -47 16 0 17 42 1 58 -19 19 -38 14
-38 -11z"/>
<path d="M11476 10404 c-10 -27 16 -69 45 -72 32 -4 44 20 27 51 -20 39 -61
51 -72 21z"/>
<path d="M11676 10375 c-18 -48 13 -95 64 -95 65 0 40 101 -27 108 -21 2 -32
-2 -37 -13z"/>
<path d="M11922 10358 c-34 -34 9 -118 62 -118 55 0 76 68 33 108 -25 24 -76
29 -95 10z"/>
<path d="M11415 10320 c-10 -17 23 -60 45 -60 22 0 26 20 10 51 -11 20 -45 26
-55 9z"/>
<path d="M11603 10283 c-38 -15 8 -97 50 -91 34 5 35 50 1 77 -28 22 -31 23
-51 14z"/>
<path d="M11822 10238 c-42 -42 34 -127 88 -98 28 15 26 55 -5 85 -26 27 -64
32 -83 13z"/>
<path d="M11520 10182 c0 -25 38 -64 58 -60 25 5 26 34 3 57 -26 26 -61 28
-61 3z"/>
<path d="M11737 10138 c-23 -12 -21 -30 4 -62 14 -18 30 -26 50 -26 38 0 47
24 23 57 -24 32 -54 44 -77 31z"/>
<path d="M11480 10136 c0 -4 9 -19 20 -33 13 -17 20 -20 20 -11 0 8 -9 23 -20
33 -11 10 -20 15 -20 11z"/>
<path d="M11647 10054 c-11 -11 15 -52 40 -63 29 -13 43 -7 43 19 0 31 -63 64
-83 44z"/>
<path d="M11610 9985 c13 -14 26 -23 28 -20 7 7 -29 45 -41 45 -6 0 0 -11 13
-25z"/>
<path d="M17554 9022 c-134 -48 -234 -137 -291 -261 -92 -203 -49 -422 113
-571 147 -134 364 -165 544 -78 88 43 187 142 228 229 117 245 12 539 -235
657 -74 35 -84 37 -193 40 -91 2 -126 -1 -166 -16z"/>
<path d="M16846 7769 c-123 -30 -254 -141 -311 -261 -96 -205 -54 -427 111
-577 187 -171 471 -171 658 0 258 236 198 648 -117 804 -75 37 -83 39 -190 41
-62 2 -129 -1 -151 -7z"/>
<path d="M15774 6746 c-252 -79 -403 -343 -339 -591 37 -141 130 -257 258
-320 329 -162 707 70 707 435 0 225 -138 412 -349 474 -66 19 -218 20 -277 2z"/>
</g>
</svg>
